<svg width="359" height="359" viewBox="0 0 359 359" fill="none" xmlns="http://www.w3.org/2000/svg">
<g filter="url(#filter0_d_151_350)">
<circle cx="179.5" cy="179.5" r="152.5" fill="#252525"/>
</g>
<path d="M256.346 292.805C253.637 292.805 250.907 292.305 248.576 291.492C242.584 289.4 238.751 285.42 238.322 280.851L238.312 280.742L238.322 280.634C239.084 272.123 238.473 257.954 238.342 255.186L142.488 166.046L144.096 164.318L240.651 254.109L240.677 254.587C240.711 255.26 241.525 271.137 240.683 280.733C241.074 284.317 244.306 287.5 249.354 289.262C255.486 291.404 261.915 290.668 264.985 287.473C269.543 282.732 270.075 276.47 270.464 271.9C270.464 271.899 270.464 271.899 270.464 271.898C270.464 271.897 270.464 271.897 270.464 271.896C270.671 269.475 270.833 267.566 271.564 266.383C272.419 265.003 275.074 264.016 280.085 262.245C280.087 262.245 280.088 262.244 280.09 262.243C285.598 260.297 293.916 257.357 294.481 254.033L294.624 253.211C296.475 242.599 296.57 232.488 284.881 230.29C279.74 230.814 276.925 231.863 274.658 232.708C274.657 232.708 274.657 232.708 274.656 232.708C271.457 233.901 269.144 234.762 263.474 233.26C253.954 230.739 211.606 191.067 209.808 189.38L211.422 187.658C226.504 201.813 256.918 229.082 264.078 230.979C269.027 232.289 270.834 231.614 273.832 230.497C276.251 229.594 279.262 228.472 284.815 227.924L284.979 227.908L285.141 227.938C300.933 230.783 298.142 246.782 296.95 253.615L296.808 254.428C296.009 259.123 287.967 261.965 280.87 264.471C277.996 265.486 274.058 266.878 273.572 267.626C273.137 268.327 272.981 270.159 272.817 272.098C272.422 276.743 271.824 283.763 266.687 289.11C264.142 291.758 260.267 292.805 256.346 292.805Z" fill="white"/>
<path d="M240.651 254.109L144.096 164.318L209.808 189.38C211.606 191.067 253.954 230.739 263.474 233.26C269.144 234.762 271.457 233.901 274.656 232.708L274.658 232.708C276.925 231.863 279.74 230.814 284.881 230.29C296.57 232.488 296.475 242.599 294.624 253.211L294.481 254.033C293.916 257.357 285.598 260.297 280.09 262.243L280.085 262.245C275.074 264.016 272.419 265.003 271.564 266.383C270.833 267.566 270.671 269.475 270.464 271.896L270.464 271.898L270.464 271.9C270.075 276.47 269.543 282.732 264.985 287.473C261.915 290.668 255.486 291.404 249.354 289.262C244.306 287.5 241.074 284.317 240.683 280.733C241.525 271.137 240.711 255.26 240.677 254.587L240.651 254.109Z" fill="white"/>
<path d="M116.873 78.6604C119.581 78.6604 122.312 79.1602 124.642 79.9735C130.634 82.0648 134.468 86.0448 134.896 90.6144L134.906 90.7232L134.897 90.8313C134.134 99.3426 134.745 113.511 134.877 116.279L230.73 205.419L229.123 207.147L132.568 117.356L132.542 116.878C132.507 116.205 131.694 100.328 132.536 90.7324C132.145 87.1479 128.913 83.9651 123.864 82.2027C117.733 80.0617 111.303 80.7968 108.233 83.9919C103.676 88.7333 103.143 94.9951 102.755 99.5653C102.755 99.5659 102.755 99.5666 102.754 99.5672C102.754 99.5678 102.754 99.5685 102.754 99.5691C102.548 101.99 102.385 103.899 101.654 105.082C100.8 106.463 98.1443 107.449 93.1338 109.22C93.132 109.221 93.1303 109.221 93.1285 109.222C87.6212 111.168 79.303 114.108 78.7373 117.432L78.5947 118.254C76.7439 128.866 76.6488 138.978 88.3373 141.175C93.4788 140.651 96.294 139.602 98.5609 138.758C98.5615 138.757 98.5622 138.757 98.5629 138.757C101.762 137.564 104.075 136.703 109.745 138.205C119.265 140.726 161.613 180.398 163.411 182.085L161.796 183.807C146.715 169.652 116.301 142.384 109.14 140.486C104.191 139.176 102.385 139.852 99.3863 140.968C96.9681 141.871 93.9565 142.993 88.404 143.541L88.2399 143.557L88.0781 143.527C72.2862 140.682 75.077 124.683 76.2685 117.85L76.4104 117.037C77.21 112.342 85.2513 109.5 92.3487 106.994C95.2231 105.979 99.1609 104.588 99.647 103.839C100.082 103.139 100.237 101.306 100.402 99.3671C100.797 94.7225 101.395 87.7022 106.531 82.3553C109.077 79.7068 112.952 78.6604 116.873 78.6604Z" fill="white"/>
<path d="M132.568 117.356L229.123 207.147L163.411 182.085C161.613 180.398 119.265 140.726 109.745 138.205C104.075 136.703 101.762 137.564 98.5629 138.757L98.5609 138.758C96.294 139.602 93.4788 140.651 88.3373 141.175C76.6488 138.978 76.7439 128.866 78.5947 118.254L78.7373 117.432C79.303 114.108 87.6212 111.168 93.1285 109.222L93.1338 109.22C98.1443 107.449 100.8 106.463 101.654 105.082C102.385 103.899 102.548 101.99 102.754 99.5691L102.754 99.5672L102.755 99.5653C103.143 94.9951 103.676 88.7333 108.233 83.9919C111.303 80.7968 117.733 80.0617 123.864 82.2027C128.913 83.9651 132.145 87.1479 132.536 90.7324C131.694 100.328 132.507 116.205 132.542 116.878L132.568 117.356Z" fill="white"/>
<path d="M65.592 245.378C65.826 242.679 66.5598 240.002 67.5714 237.75C70.1725 231.962 74.4688 228.486 79.0583 228.454L79.1676 228.453L79.2745 228.472C87.6881 229.967 101.857 230.582 104.626 230.691L201.712 142.896L203.295 144.647L105.499 233.084L105.02 233.069C104.347 233.045 88.4594 232.484 78.972 230.816C75.3671 230.896 71.917 233.841 69.7251 238.718C67.0624 244.642 67.2394 251.111 70.1573 254.445C74.4872 259.395 80.6797 260.467 85.1992 261.249C85.1998 261.249 85.2004 261.249 85.2011 261.249C85.2017 261.249 85.2023 261.249 85.2029 261.25C87.5968 261.664 89.4852 261.991 90.6001 262.822C91.9018 263.792 92.6553 266.523 93.9866 271.668C93.9871 271.67 93.9875 271.671 93.988 271.673C95.4513 277.328 97.6615 285.869 100.925 286.72L101.731 286.933C112.144 289.694 122.209 290.662 125.408 279.207C125.33 274.039 124.528 271.144 123.883 268.813C123.882 268.812 123.882 268.811 123.882 268.811C122.97 265.521 122.312 263.142 124.298 257.623C127.632 248.356 170.814 209.593 172.65 207.948L174.226 209.705C158.822 223.508 129.028 251.452 126.519 258.422C124.786 263.239 125.303 265.097 126.157 268.181C126.847 270.668 127.704 273.766 127.771 279.345L127.773 279.51L127.729 279.668C123.531 295.155 107.832 290.993 101.128 289.216L100.33 289.004C95.7216 287.802 93.5844 279.545 91.701 272.258C90.9381 269.306 89.8922 265.263 89.1888 264.714C88.5283 264.22 86.7157 263.907 84.7985 263.575C80.2053 262.781 73.2629 261.579 68.3797 256C65.961 253.235 65.2533 249.284 65.592 245.378Z" fill="white"/>
<path d="M105.499 233.084L203.295 144.647L172.65 207.948C170.814 209.593 127.632 248.356 124.298 257.623C122.312 263.142 122.97 265.521 123.882 268.811L123.883 268.813C124.528 271.144 125.33 274.039 125.408 279.207C122.209 290.662 112.144 289.694 101.731 286.933L100.925 286.72C97.6615 285.869 95.4513 277.328 93.988 271.673L93.9866 271.668C92.6553 266.523 91.9018 263.792 90.6001 262.822C89.4852 261.991 87.5968 261.664 85.2029 261.25L85.2011 261.249L85.1992 261.249C80.6797 260.467 74.4872 259.395 70.1573 254.445C67.2394 251.111 67.0624 244.642 69.7251 238.718C71.917 233.841 75.3671 230.896 78.972 230.816C88.4594 232.484 104.347 233.045 105.02 233.069L105.499 233.084Z" fill="white"/>
<path d="M290.984 124.925C290.75 127.623 290.017 130.3 289.005 132.552C286.404 138.341 282.108 141.816 277.518 141.849L277.409 141.849L277.302 141.831C268.888 140.335 254.72 139.72 251.951 139.612L154.864 227.407L153.281 225.656L251.077 137.219L251.556 137.234C252.23 137.258 268.117 137.819 277.604 139.486C281.209 139.407 284.659 136.462 286.851 131.584C289.514 125.661 289.337 119.192 286.419 115.857C282.089 110.907 275.897 109.836 271.377 109.054C271.377 109.054 271.376 109.053 271.375 109.053C271.375 109.053 271.374 109.053 271.373 109.053C268.98 108.638 267.091 108.311 265.976 107.481C264.675 106.511 263.921 103.779 262.59 98.6347C262.589 98.6329 262.589 98.6311 262.588 98.6293C261.125 92.9744 258.915 84.4334 255.652 83.5826L254.845 83.3696C244.433 80.6089 234.367 79.6407 231.168 91.0956C231.246 96.2632 232.048 99.1585 232.694 101.49C232.694 101.491 232.694 101.491 232.694 101.492C233.606 104.782 234.264 107.161 232.278 112.679C228.944 121.946 185.762 160.709 183.926 162.355L182.35 160.597C197.755 146.795 227.549 118.85 230.058 111.881C231.79 107.063 231.274 105.205 230.42 102.121C229.729 99.6341 228.872 96.5368 228.806 90.9577L228.804 90.7929L228.847 90.6343C233.046 75.1472 248.744 79.3096 255.449 81.087L256.246 81.2985C260.855 82.5008 262.992 90.7575 264.875 98.0449C265.638 100.996 266.684 105.039 267.388 105.588C268.048 106.082 269.861 106.395 271.778 106.727C276.371 107.522 283.313 108.724 288.197 114.303C290.615 117.068 291.323 121.018 290.984 124.925Z" fill="white"/>
<path d="M251.077 137.219L153.281 225.656L183.926 162.355C185.762 160.709 228.944 121.946 232.278 112.679C234.264 107.161 233.606 104.782 232.694 101.492L232.694 101.49C232.048 99.1585 231.246 96.2632 231.168 91.0956C234.367 79.6407 244.433 80.6089 254.845 83.3696L255.652 83.5826C258.915 84.4334 261.125 92.9744 262.588 98.6293L262.59 98.6347C263.921 103.779 264.675 106.511 265.976 107.481C267.091 108.311 268.98 108.638 271.373 109.053L271.375 109.053L271.377 109.054C275.897 109.836 282.089 110.907 286.419 115.857C289.337 119.192 289.514 125.661 286.851 131.584C284.659 136.462 281.209 139.407 277.604 139.486C268.117 137.819 252.23 137.258 251.556 137.234L251.077 137.219Z" fill="white"/>
<path d="M155.826 144.439C155.826 144.439 156.135 99.7493 180.923 79.4254C205.248 97.4268 206.363 145.031 206.109 145.617" fill="#C19BDF"/>
<path d="M233.475 168.02C233.475 168.02 262.481 172.725 285.938 141.708C287.407 141.537 286.736 141.603 287.407 141.537C289.667 160.722 282.947 208.888 222.387 213.081" fill="#C19BDF"/>
<path d="M233.346 186.834C274.382 177.972 286.326 144.898 286.326 144.898L287.309 141.708C288.778 141.537 288.107 141.603 288.778 141.537C291.038 160.722 284.318 208.888 223.758 213.081L210.281 207.019L213.991 197.494L219.884 190.197L233.346 186.834Z" fill="#A06BC0"/>
<path d="M206.135 143.93C206.135 143.93 239.136 131.827 238.536 91.9143C239.178 90.6847 239.329 90.8082 240.392 91.9143C240.587 92.116 240.782 92.3205 240.978 92.5291C254.729 107.176 271.167 137.842 232.335 173.885" fill="#C19BDF"/>
<path d="M231.824 174.626C270.656 138.583 254.728 105.91 240.977 91.2657C240.781 91.0565 240.586 90.852 240.39 90.6486C239.327 89.5448 238.43 92.0473 238.43 92.0473C238.43 92.0473 253.245 121.203 221.27 152.138L217.841 156.034L221.069 169.032L227.876 173.453L231.824 174.626Z" fill="#A06BC0"/>
<path d="M127.399 167.727C127.399 167.727 99.0096 172.226 75.3427 141.209C73.8614 141.038 74.5388 141.104 73.8614 141.038C71.5802 160.223 78.3616 208.39 139.462 212.582" fill="#C19BDF"/>
<path d="M128.404 186.336C87.003 177.474 73.9592 143.966 73.9592 143.966V141.209C72.4773 141.038 73.1542 141.104 72.4773 141.038C70.1962 160.223 76.9781 208.389 138.077 212.582L151.675 206.52L147.932 196.995L141.986 189.698L128.404 186.336Z" fill="#A06BC0"/>
<path d="M155.296 146.599C155.296 146.599 122.295 134.494 122.895 94.5811C122.254 93.3521 122.103 93.4768 121.039 94.5811C120.845 94.7828 120.649 94.9891 120.453 95.1965C106.702 109.843 90.2637 140.511 129.097 176.554" fill="#C19BDF"/>
<path d="M129.427 177.929C90.5938 141.887 106.702 108.579 120.454 93.9328C120.649 93.7248 120.844 93.5185 121.039 93.3174C122.103 92.2131 122.82 93.6983 122.82 93.6983C122.82 93.6983 108.185 123.871 140.159 154.805L143.59 158.701L140.362 171.701L133.554 176.12L129.427 177.929Z" fill="#A06BC0"/>
<path d="M221.153 215.9C221.153 215.9 240.1 241.313 263.648 237.923C263.557 238.294 263.525 238.427 263.247 238.785C236.679 263.506 196.705 254.887 180.817 233.559" fill="#C19BDF"/>
<path d="M179.705 233.56C195.593 254.887 234.984 265.409 261.552 240.689C261.83 240.331 264.764 237.757 264.856 237.385L260.316 239.31C260.316 239.31 236.535 247.27 204.137 228.66L197.555 218.507C197.555 218.507 192.412 219.049 191.871 219.049C191.329 219.049 180.91 222.702 180.91 222.702L174.685 229.604L179.705 233.56Z" fill="#A06BC0"/>
<path d="M139.703 215.859C139.703 215.859 120.757 241.273 97.208 237.881C97.2994 238.255 97.3315 238.385 97.6091 238.743C124.177 263.466 164.152 254.847 180.04 233.52" fill="#C19BDF"/>
<path d="M181.151 233.519C165.263 254.846 124.853 263.992 98.2843 239.269C98.0067 238.911 96.486 237.759 96.3953 237.386L100.54 239.268C100.54 239.268 124.32 247.229 156.718 228.62L163.301 218.465C163.301 218.465 168.443 219.006 168.984 219.006C169.526 219.006 179.946 222.66 179.946 222.66L186.171 229.561L181.151 233.519Z" fill="#A06BC0"/>
<path d="M128.764 185.078C128.764 212.142 152.257 234.08 181.237 234.08C210.218 234.08 233.711 212.142 233.711 185.078C233.711 158.014 210.218 136.076 181.237 136.076C152.257 136.076 128.764 158.014 128.764 185.078Z" fill="#E5AFE6"/>
<path d="M202.38 151.725C199.434 154.997 201.584 161.735 207.181 166.773C212.777 171.812 219.702 173.244 222.649 169.971C225.595 166.7 223.445 159.963 217.849 154.923C212.251 149.885 205.325 148.454 202.38 151.725Z" fill="white"/>
<path d="M159.347 152.04C162.293 155.312 160.143 162.048 154.546 167.088C148.951 172.126 142.024 173.559 139.078 170.286C136.132 167.015 138.282 160.278 143.879 155.238C149.476 150.2 156.402 148.769 159.347 152.04Z" fill="white"/>
<path d="M151.858 182.07C151.858 196.187 164.752 207.631 180.658 207.631C196.564 207.631 209.458 196.187 209.458 182.07C209.458 167.953 196.564 156.51 180.658 156.51C164.752 156.51 151.858 167.953 151.858 182.07Z" fill="white"/>
<path d="M205.355 153.902C203.262 155.728 204.292 160.33 207.655 164.18C211.015 168.03 215.436 169.67 217.529 167.843C219.62 166.017 218.59 161.416 215.229 157.567C211.867 153.716 207.446 152.076 205.355 153.902Z" fill="#654280"/>
<path d="M155.896 154.207C157.987 156.033 156.958 160.634 153.596 164.485C150.235 168.333 145.814 169.973 143.721 168.148C141.63 166.321 142.659 161.721 146.02 157.869C149.383 154.021 153.804 152.38 155.896 154.207Z" fill="#654280"/>
<path d="M174.556 161.08C174.556 163.488 177.241 165.441 180.552 165.441C183.862 165.441 186.547 163.488 186.547 161.08C186.547 158.671 183.862 156.719 180.552 156.719C177.241 156.719 174.556 158.671 174.556 161.08Z" fill="#654280"/>
<path d="M182.277 187.657H178.973V164.535H182.277V187.657Z" fill="#654280"/>
<path d="M180.796 188.01C168.586 188.01 155.573 185.76 152.549 181.068L153.538 180.55C156.588 185.283 172.004 187.487 185.147 186.881C197.495 186.313 206.389 183.515 208.361 179.581L209.403 180.003C207.222 184.358 198.176 187.313 185.205 187.91C183.761 187.978 182.284 188.01 180.796 188.01Z" fill="#654280"/>
<defs>
<filter id="filter0_d_151_350" x="0.1" y="0.1" width="358.8" height="358.8" filterUnits="userSpaceOnUse" color-interpolation-filters="sRGB">
<feFlood flood-opacity="0" result="BackgroundImageFix"/>
<feColorMatrix in="SourceAlpha" type="matrix" values="0 0 0 0 0 0 0 0 0 0 0 0 0 0 0 0 0 0 127 0" result="hardAlpha"/>
<feMorphology radius="7" operator="dilate" in="SourceAlpha" result="effect1_dropShadow_151_350"/>
<feOffset/>
<feGaussianBlur stdDeviation="9.95"/>
<feComposite in2="hardAlpha" operator="out"/>
<feColorMatrix type="matrix" values="0 0 0 0 0 0 0 0 0 0 0 0 0 0 0 0 0 0 0.25 0"/>
<feBlend mode="normal" in2="BackgroundImageFix" result="effect1_dropShadow_151_350"/>
<feBlend mode="normal" in="SourceGraphic" in2="effect1_dropShadow_151_350" result="shape"/>
</filter>
</defs>
</svg>
