<svg width="639" height="651" viewBox="0 0 639 651" fill="none" xmlns="http://www.w3.org/2000/svg">
<path d="M526.379 617C519.042 617 511.648 615.647 505.335 613.444C489.106 607.78 478.723 597 477.562 584.623L477.535 584.329L477.56 584.036C479.627 560.983 477.971 522.608 477.616 515.111L218 273.68L222.355 269L483.869 512.194L483.94 513.489C484.033 515.312 486.236 558.313 483.956 584.304C485.015 594.012 493.768 602.633 507.443 607.406C524.049 613.205 541.463 611.214 549.778 602.56C562.122 589.718 563.564 572.758 564.617 560.38C564.617 560.379 564.617 560.377 564.618 560.375C564.618 560.373 564.618 560.372 564.618 560.37C565.176 553.814 565.617 548.641 567.597 545.439C569.911 541.699 577.104 539.027 590.675 534.231C590.679 534.229 590.684 534.228 590.689 534.226C605.605 528.954 628.135 520.992 629.667 511.988L630.053 509.763C635.066 481.019 635.324 453.634 603.666 447.681C589.74 449.101 582.115 451.942 575.976 454.23C575.974 454.23 575.972 454.231 575.97 454.232C567.307 457.462 561.042 459.794 545.685 455.727C519.9 448.898 405.201 341.448 400.332 336.879L404.705 332.215C445.554 370.553 527.928 444.409 547.322 449.548C560.726 453.096 565.618 451.267 573.74 448.242C580.29 445.796 588.447 442.758 603.485 441.274L603.93 441.23L604.368 441.311C647.139 449.016 639.581 492.349 636.354 510.857L635.969 513.058C633.804 525.775 612.024 533.473 592.801 540.26C585.016 543.009 574.351 546.778 573.034 548.804C571.857 550.702 571.435 555.666 570.989 560.917C569.919 573.497 568.299 592.511 554.388 606.993C547.494 614.166 536.999 617 526.379 617Z" fill="white"/>
<path d="M483.869 512.194L222.355 269L400.332 336.879C405.201 341.448 519.9 448.898 545.685 455.727C561.042 459.794 567.307 457.462 575.97 454.232L575.976 454.23C582.115 451.942 589.74 449.101 603.666 447.681C635.324 453.634 635.066 481.019 630.053 509.763L629.667 511.988C628.135 520.992 605.605 528.954 590.689 534.226L590.675 534.231C577.104 539.027 569.911 541.699 567.597 545.439C565.617 548.641 565.176 553.814 564.618 560.37L564.618 560.375L564.617 560.38C563.564 572.758 562.122 589.718 549.778 602.56C541.463 611.214 524.049 613.205 507.443 607.406C493.768 602.633 485.015 594.012 483.956 584.304C486.236 558.313 484.033 515.312 483.94 513.489L483.869 512.194Z" fill="white"/>
<path d="M148.621 37C155.958 37 163.352 38.3537 169.665 40.5566C185.894 46.2206 196.277 57.0004 197.438 69.3768L197.465 69.6717L197.44 69.9644C195.374 93.0168 197.029 131.392 197.384 138.889L457 380.32L452.645 385L191.131 141.806L191.06 140.511C190.967 138.688 188.764 95.6869 191.044 69.6966C189.985 59.9881 181.232 51.3676 167.558 46.5943C150.951 40.7954 133.537 42.7865 125.222 51.4402C112.878 64.282 111.436 81.2419 110.383 93.62C110.383 93.6217 110.383 93.6235 110.383 93.6252C110.382 93.6269 110.382 93.6286 110.382 93.6303C109.824 100.187 109.383 105.359 107.403 108.562C105.089 112.301 97.896 114.973 84.3254 119.769C84.3206 119.771 84.3159 119.773 84.3111 119.774C69.3947 125.046 46.8652 133.008 45.3332 142.012L44.9469 144.238C39.934 172.981 39.6765 200.367 71.3343 206.319C85.2599 204.899 92.8848 202.058 99.0244 199.771C99.0262 199.77 99.028 199.769 99.0298 199.769C107.693 196.538 113.958 194.206 129.315 198.274C155.1 205.102 269.799 312.552 274.668 317.122L270.295 321.785C229.446 283.447 147.072 209.591 127.679 204.453C114.274 200.904 109.382 202.733 101.26 205.759C94.7105 208.204 86.5536 211.242 71.5149 212.726L71.0705 212.77L70.6324 212.689C27.8607 204.984 35.4195 161.651 38.6465 143.143L39.0307 140.943C41.1966 128.226 62.9759 120.527 82.199 113.74C89.9842 110.991 100.65 107.222 101.966 105.196C103.144 103.298 103.565 98.3341 104.012 93.0833C105.081 80.5034 106.701 61.4892 120.612 47.0075C127.506 39.8341 138.001 37 148.621 37Z" fill="white"/>
<path d="M191.131 141.806L452.645 385L274.668 317.122C269.799 312.552 155.1 205.102 129.315 198.274C113.958 194.206 107.693 196.538 99.0298 199.769L99.0244 199.771C92.8848 202.058 85.2599 204.899 71.3343 206.319C39.6765 200.367 39.934 172.981 44.9469 144.238L45.3332 142.012C46.8652 133.008 69.3947 125.046 84.3111 119.774L84.3254 119.769C97.896 114.973 105.089 112.301 107.403 108.562C109.383 105.359 109.824 100.187 110.382 93.6303L110.383 93.6252L110.383 93.62C111.436 81.2419 112.878 64.282 125.222 51.4402C133.537 42.7865 150.951 40.7954 167.558 46.5943C181.232 51.3676 189.985 59.9881 191.044 69.6966C188.764 95.6869 190.967 138.688 191.06 140.511L191.131 141.806Z" fill="white"/>
<path d="M9.7289 488.546C10.3627 481.237 12.3501 473.986 15.0901 467.887C22.1348 452.209 33.7713 442.796 46.2018 442.709L46.4978 442.707L46.7873 442.757C69.5751 446.807 107.95 448.473 115.45 448.767L378.405 210.978L382.691 215.72L117.816 455.249L116.519 455.207C114.695 455.143 71.6642 453.623 45.968 449.106C36.2043 449.323 26.8599 457.298 20.9232 470.509C13.7113 486.552 14.1907 504.074 22.0938 513.105C33.8213 526.512 50.5932 529.414 62.834 531.532C62.8357 531.532 62.8374 531.533 62.8391 531.533C62.8408 531.533 62.8425 531.534 62.8442 531.534C69.3279 532.657 74.4426 533.542 77.4623 535.792C80.9878 538.42 83.0285 545.817 86.6344 559.751C86.6357 559.756 86.6369 559.761 86.6382 559.766C90.6015 575.082 96.5878 598.215 105.426 600.519L107.61 601.096C135.813 608.573 163.073 611.196 171.739 580.171C171.527 566.174 169.355 558.333 167.607 552.018C167.606 552.016 167.606 552.014 167.605 552.013C165.135 543.102 163.353 536.659 168.732 521.712C177.763 496.613 294.719 391.625 299.692 387.168L303.96 391.928C262.237 429.312 181.541 504.999 174.746 523.876C170.053 536.923 171.453 541.956 173.765 550.308C175.636 557.045 177.958 565.433 178.137 580.544L178.143 580.991L178.024 581.42C166.653 623.366 124.135 612.092 105.975 607.279L103.816 606.706C91.3336 603.449 85.5451 581.086 80.4438 561.349C78.3777 553.355 75.5448 542.404 73.6397 540.918C71.8508 539.581 66.9415 538.732 61.7489 537.833C49.3084 535.681 30.5052 532.425 17.2793 517.315C10.7283 509.827 8.8115 499.126 9.7289 488.546Z" fill="white"/>
<path d="M117.816 455.249L382.691 215.72L299.692 387.168C294.719 391.625 177.763 496.613 168.732 521.712C163.353 536.659 165.135 543.102 167.605 552.013L167.607 552.018C169.355 558.333 171.527 566.174 171.739 580.171C163.073 611.196 135.813 608.573 107.61 601.096L105.426 600.519C96.5878 598.215 90.6015 575.082 86.6382 559.766L86.6344 559.751C83.0285 545.817 80.9878 538.42 77.4623 535.792C74.4426 533.542 69.3279 532.657 62.8442 531.534L62.8391 531.533L62.834 531.532C50.5932 529.414 33.8213 526.512 22.0938 513.105C14.1907 504.074 13.7113 486.552 20.9232 470.509C26.8599 457.298 36.2043 449.323 45.968 449.106C71.6642 453.623 114.695 455.143 116.519 455.207L117.816 455.249Z" fill="white"/>
<path d="M620.194 162.304C619.56 169.613 617.573 176.863 614.833 182.962C607.788 198.641 596.151 208.054 583.721 208.141L583.425 208.143L583.135 208.092C560.348 204.043 521.973 202.376 514.473 202.083L251.518 439.872L247.231 435.129L512.107 195.601L513.404 195.643C515.228 195.707 558.259 197.227 583.955 201.744C593.718 201.527 603.063 193.552 609 180.341C616.211 164.297 615.732 146.776 607.829 137.745C596.102 124.338 579.33 121.436 567.089 119.318C567.087 119.317 567.085 119.317 567.084 119.317C567.082 119.316 567.08 119.316 567.079 119.316C560.595 118.193 555.48 117.308 552.46 115.058C548.935 112.43 546.894 105.033 543.288 91.0985C543.287 91.0936 543.286 91.0887 543.285 91.0838C539.321 75.7678 533.335 52.6347 524.497 50.3306L522.313 49.7535C494.11 42.2763 466.849 39.654 458.184 70.6792C458.396 84.6755 460.567 92.5172 462.316 98.8315C462.317 98.8334 462.317 98.8352 462.318 98.8371C464.788 107.747 466.57 114.19 461.191 129.138C452.16 154.237 335.204 259.225 330.231 263.682L325.963 258.922C367.686 221.538 448.382 145.851 455.176 126.974C459.869 113.926 458.47 108.894 456.158 100.542C454.287 93.8052 451.965 85.4164 451.785 70.3057L451.78 69.8592L451.899 69.4297C463.27 27.4834 505.788 38.7574 523.948 43.5712L526.107 44.144C538.589 47.4004 544.378 69.7634 549.479 89.5009C551.545 97.4944 554.378 108.445 556.283 109.932C558.072 111.269 562.981 112.118 568.174 113.016C580.614 115.169 599.418 118.425 612.643 133.535C619.194 141.023 621.111 151.724 620.194 162.304Z" fill="white"/>
<path d="M512.107 195.601L247.231 435.129L330.231 263.682C335.204 259.225 452.16 154.237 461.191 129.138C466.57 114.19 464.788 107.747 462.318 98.8371L462.316 98.8315C460.567 92.5172 458.396 84.6755 458.184 70.6792C466.849 39.654 494.11 42.2763 522.313 49.7535L524.497 50.3306C533.335 52.6347 539.321 75.7678 543.285 91.0838L543.288 91.0985C546.894 105.033 548.935 112.43 552.46 115.058C555.48 117.308 560.595 118.193 567.079 119.316L567.084 119.317L567.089 119.318C579.33 121.436 596.102 124.338 607.829 137.745C615.732 146.776 616.211 164.297 609 180.341C603.063 193.552 593.718 201.527 583.955 201.744C558.259 197.227 515.228 195.707 513.404 195.643L512.107 195.601Z" fill="white"/>
<path d="M254.127 215.161C254.127 215.161 254.963 94.12 322.1 39.0735C387.984 87.8296 391.003 216.763 390.315 218.352" fill="#C19BDF"/>
<path d="M464.437 279.027C464.437 279.027 542.999 291.773 606.53 207.764C610.509 207.3 608.69 207.479 610.509 207.3C616.63 259.262 598.428 389.719 434.405 401.073" fill="#C19BDF"/>
<path d="M464.088 329.987C575.231 305.984 607.581 216.402 607.581 216.402L610.244 207.764C614.223 207.3 612.404 207.479 614.223 207.3C620.344 259.262 602.142 389.717 438.118 401.073L401.616 384.656L411.665 358.858L427.625 339.094L464.088 329.987Z" fill="#A06BC0"/>
<path d="M390.386 213.783C390.386 213.783 479.767 181 478.142 72.8995C479.881 69.5691 480.288 69.9037 483.167 72.8995C483.697 73.4457 484.226 73.9997 484.756 74.5647C521.999 114.235 566.522 197.293 461.346 294.914" fill="#C19BDF"/>
<path d="M459.964 296.92C565.141 199.299 522 110.806 484.756 71.1421C484.225 70.5756 483.696 70.0216 483.167 69.4707C480.288 66.4811 477.857 73.259 477.857 73.259C477.857 73.259 517.984 152.225 431.379 236.012L422.092 246.565L430.835 281.768L449.272 293.743L459.964 296.92Z" fill="#A06BC0"/>
<path d="M177.133 278.233C177.133 278.233 100.242 290.42 36.1407 206.412C32.1287 205.948 33.9635 206.127 32.1287 205.948C25.9504 257.909 44.3173 388.367 209.805 399.721" fill="#C19BDF"/>
<path d="M179.857 328.634C67.7237 304.632 32.395 213.877 32.395 213.877V206.412C28.3814 205.948 30.2147 206.127 28.3814 205.948C22.2031 257.909 40.5716 388.365 206.057 399.721L242.885 383.304L232.746 357.506L216.644 337.742L179.857 328.634Z" fill="#A06BC0"/>
<path d="M252.691 221.011C252.691 221.011 163.31 188.223 164.934 80.1223C163.197 76.7935 162.789 77.1312 159.908 80.1223C159.381 80.6686 158.852 81.2272 158.321 81.7891C121.077 121.458 76.5535 204.52 181.732 302.141" fill="#C19BDF"/>
<path d="M182.625 305.867C77.4482 208.25 121.077 118.036 158.323 78.3673C158.852 77.804 159.381 77.2453 159.908 76.7006C162.789 73.7095 164.732 77.7322 164.732 77.7322C164.732 77.7322 125.093 159.453 211.695 243.238L220.985 253.789L212.244 288.998L193.804 300.969L182.625 305.867Z" fill="#A06BC0"/>
<path d="M431.062 408.708C431.062 408.708 482.378 477.54 546.158 468.357C545.91 469.364 545.823 469.722 545.072 470.691C473.112 537.648 364.846 514.304 321.814 456.539" fill="#C19BDF"/>
<path d="M318.803 456.541C361.836 514.304 468.524 542.804 540.483 475.849C541.234 474.88 549.182 467.908 549.429 466.903L537.133 472.116C537.133 472.116 472.725 493.675 384.976 443.271L367.149 415.771C367.149 415.771 353.22 417.239 351.754 417.239C350.287 417.239 322.065 427.134 322.065 427.134L305.205 445.826L318.803 456.541Z" fill="#A06BC0"/>
<path d="M210.46 408.596C210.46 408.596 159.143 477.428 95.3633 468.241C95.6107 469.255 95.6979 469.606 96.4495 470.576C168.408 537.539 276.677 514.195 319.709 456.429" fill="#C19BDF"/>
<path d="M322.717 456.43C279.685 514.194 170.237 538.964 98.2768 472.002C97.5251 471.033 93.4064 467.914 93.1605 466.902L104.387 472.002C104.387 472.002 168.793 493.564 256.543 443.16L274.371 415.657C274.371 415.657 288.3 417.122 289.764 417.122C291.232 417.122 319.453 427.02 319.453 427.02L336.315 445.709L322.717 456.43Z" fill="#A06BC0"/>
<path d="M180.829 325.231C180.829 398.532 244.458 457.949 322.951 457.949C401.443 457.949 465.074 398.532 465.074 325.231C465.074 251.929 401.443 192.511 322.951 192.511C244.458 192.511 180.829 251.929 180.829 325.231Z" fill="#E5AFE6"/>
<path d="M380.215 234.895C372.236 243.756 378.06 262.007 393.218 275.652C408.374 289.299 427.132 293.177 435.114 284.314C443.091 275.453 437.269 257.207 422.111 243.557C406.952 229.912 388.193 226.034 380.215 234.895Z" fill="white"/>
<path d="M263.662 235.746C271.64 244.607 265.818 262.853 250.658 276.503C235.503 290.148 216.744 294.028 208.765 285.165C200.785 276.304 206.607 258.058 221.766 244.408C236.926 230.763 255.685 226.885 263.662 235.746Z" fill="white"/>
<path d="M243.38 317.084C243.38 355.318 278.302 386.312 321.384 386.312C364.463 386.312 399.385 355.318 399.385 317.084C399.385 278.848 364.463 247.854 321.384 247.854C278.302 247.854 243.38 278.848 243.38 317.084Z" fill="white"/>
<path d="M388.273 240.79C382.607 245.737 385.396 258.199 394.503 268.629C403.604 279.055 415.578 283.496 421.247 278.549C426.911 273.604 424.12 261.142 415.018 250.716C405.912 240.288 393.937 235.844 388.273 240.79Z" fill="#654280"/>
<path d="M254.318 241.616C259.981 246.563 257.194 259.024 248.09 269.454C238.985 279.878 227.012 284.318 221.342 279.375C215.679 274.428 218.468 261.968 227.57 251.537C236.678 241.114 248.653 236.669 254.318 241.616Z" fill="#654280"/>
<path d="M304.856 260.231C304.856 266.755 312.127 272.044 321.096 272.044C330.061 272.044 337.333 266.755 337.333 260.231C337.333 253.707 330.061 248.421 321.096 248.421C312.127 248.421 304.856 253.707 304.856 260.231Z" fill="#654280"/>
<path d="M325.768 332.217H316.821V269.592H325.768V332.217Z" fill="#654280"/>
<path d="M321.758 333.171C288.686 333.171 253.441 327.077 245.25 314.369L247.93 312.967C256.189 325.784 297.943 331.754 333.542 330.113C366.984 328.576 391.075 320.997 396.414 310.34L399.238 311.485C393.331 323.278 368.829 331.284 333.699 332.901C329.788 333.083 325.785 333.171 321.758 333.171Z" fill="#654280"/>
</svg>
