<svg width="172" height="69" viewBox="0 0 172 69" fill="none" xmlns="http://www.w3.org/2000/svg">
<path d="M89.3182 43V25.5455H94.9517C96.1903 25.5455 97.2244 25.7841 98.054 26.2614C98.8892 26.733 99.517 27.375 99.9375 28.1875C100.364 29 100.577 29.9148 100.577 30.9318C100.577 31.9489 100.366 32.8665 99.946 33.6847C99.5256 34.4972 98.9006 35.142 98.071 35.6193C97.2415 36.0909 96.2102 36.3267 94.9773 36.3267H90.5455V34.8949H94.9347C95.8494 34.8949 96.608 34.7244 97.2102 34.3835C97.8125 34.0369 98.2614 33.5653 98.5568 32.9688C98.858 32.3722 99.0085 31.6932 99.0085 30.9318C99.0085 30.1705 98.858 29.4915 98.5568 28.8949C98.2614 28.2983 97.8097 27.8295 97.2017 27.4886C96.5994 27.1477 95.8352 26.9773 94.9091 26.9773H90.9119V43H89.3182ZM104.003 43V29.9091H105.477V31.9205H105.588C105.849 31.2614 106.304 30.7301 106.952 30.3267C107.605 29.9176 108.344 29.7131 109.168 29.7131C109.293 29.7131 109.432 29.7159 109.585 29.7216C109.739 29.7273 109.866 29.733 109.969 29.7386V31.2812C109.901 31.2699 109.781 31.2528 109.611 31.2301C109.44 31.2074 109.256 31.196 109.057 31.196C108.375 31.196 107.767 31.3409 107.233 31.6307C106.705 31.9148 106.287 32.3097 105.98 32.8153C105.673 33.321 105.52 33.8977 105.52 34.5455V43H104.003ZM112.575 43V29.9091H114.1V43H112.575ZM113.35 27.6591C113.038 27.6591 112.771 27.554 112.549 27.3438C112.327 27.1278 112.217 26.8693 112.217 26.5682C112.217 26.267 112.327 26.0114 112.549 25.8011C112.771 25.5852 113.038 25.4773 113.35 25.4773C113.663 25.4773 113.93 25.5852 114.151 25.8011C114.373 26.0114 114.484 26.267 114.484 26.5682C114.484 26.8693 114.373 27.1278 114.151 27.3438C113.93 27.554 113.663 27.6591 113.35 27.6591ZM119.629 34.8182V43H118.112V29.9091H119.587V31.9631H119.723C120.03 31.2926 120.507 30.7557 121.155 30.3523C121.808 29.9432 122.615 29.7386 123.575 29.7386C124.456 29.7386 125.229 29.9233 125.893 30.2926C126.564 30.6562 127.084 31.1932 127.453 31.9034C127.828 32.6136 128.016 33.4858 128.016 34.5199V43H126.499V34.6136C126.499 33.5398 126.197 32.6903 125.595 32.0653C124.999 31.4403 124.197 31.1278 123.192 31.1278C122.504 31.1278 121.893 31.2756 121.359 31.571C120.825 31.8665 120.402 32.2926 120.089 32.8494C119.783 33.4006 119.629 34.0568 119.629 34.8182ZM137.167 29.9091V31.2301H130.92V29.9091H137.167ZM132.871 26.7727H134.397V39.5824C134.397 40.1278 134.491 40.5568 134.678 40.8693C134.866 41.1761 135.11 41.3949 135.411 41.5256C135.712 41.6506 136.033 41.7131 136.374 41.7131C136.573 41.7131 136.744 41.7017 136.886 41.679C137.028 41.6506 137.153 41.6222 137.261 41.5938L137.585 42.9659C137.437 43.0227 137.255 43.0739 137.039 43.1193C136.823 43.1705 136.556 43.196 136.238 43.196C135.681 43.196 135.144 43.0739 134.627 42.8295C134.116 42.5852 133.695 42.2216 133.366 41.7386C133.036 41.2557 132.871 40.6562 132.871 39.9403V26.7727Z" fill="white"/>
<path d="M151.7 31.1875C151.581 30.7727 151.413 30.4062 151.197 30.0881C150.982 29.7642 150.717 29.4915 150.405 29.2699C150.098 29.0426 149.746 28.8693 149.348 28.75C148.956 28.6307 148.521 28.571 148.044 28.571C147.152 28.571 146.368 28.7926 145.692 29.2358C145.021 29.679 144.499 30.3239 144.124 31.1705C143.749 32.0114 143.561 33.0398 143.561 34.2557C143.561 35.4716 143.746 36.5057 144.115 37.358C144.484 38.2102 145.007 38.8608 145.683 39.3097C146.359 39.7528 147.158 39.9744 148.078 39.9744C148.913 39.9744 149.626 39.8267 150.217 39.5312C150.814 39.2301 151.268 38.8068 151.581 38.2614C151.899 37.7159 152.058 37.071 152.058 36.3267L152.808 36.4375H148.308V33.6591H155.612V35.858C155.612 37.392 155.288 38.7102 154.641 39.8125C153.993 40.9091 153.101 41.7557 151.964 42.3523C150.828 42.9432 149.527 43.2386 148.061 43.2386C146.425 43.2386 144.987 42.8778 143.749 42.1562C142.51 41.429 141.544 40.3977 140.851 39.0625C140.163 37.7216 139.82 36.1307 139.82 34.2898C139.82 32.875 140.024 31.6136 140.433 30.5057C140.848 29.392 141.428 28.4489 142.172 27.6761C142.916 26.9034 143.783 26.3153 144.771 25.9119C145.76 25.5085 146.831 25.3068 147.984 25.3068C148.973 25.3068 149.893 25.4517 150.746 25.7415C151.598 26.0256 152.354 26.429 153.013 26.9517C153.678 27.4744 154.22 28.0966 154.641 28.8182C155.061 29.5341 155.331 30.3239 155.45 31.1875H151.7ZM164.231 43.2557C162.907 43.2557 161.762 42.9744 160.796 42.4119C159.836 41.8437 159.094 41.054 158.572 40.0426C158.049 39.0256 157.788 37.8466 157.788 36.5057C157.788 35.1534 158.049 33.9716 158.572 32.9602C159.094 31.9432 159.836 31.1534 160.796 30.5909C161.762 30.0227 162.907 29.7386 164.231 29.7386C165.555 29.7386 166.697 30.0227 167.657 30.5909C168.623 31.1534 169.367 31.9432 169.89 32.9602C170.413 33.9716 170.674 35.1534 170.674 36.5057C170.674 37.8466 170.413 39.0256 169.89 40.0426C169.367 41.054 168.623 41.8437 167.657 42.4119C166.697 42.9744 165.555 43.2557 164.231 43.2557ZM164.248 40.4432C164.85 40.4432 165.353 40.2727 165.756 39.9318C166.16 39.5852 166.464 39.1136 166.668 38.517C166.879 37.9205 166.984 37.2415 166.984 36.4801C166.984 35.7188 166.879 35.0398 166.668 34.4432C166.464 33.8466 166.16 33.375 165.756 33.0284C165.353 32.6818 164.85 32.5085 164.248 32.5085C163.64 32.5085 163.129 32.6818 162.714 33.0284C162.305 33.375 161.995 33.8466 161.785 34.4432C161.58 35.0398 161.478 35.7188 161.478 36.4801C161.478 37.2415 161.58 37.9205 161.785 38.517C161.995 39.1136 162.305 39.5852 162.714 39.9318C163.129 40.2727 163.64 40.4432 164.248 40.4432Z" fill="#AE81D1"/>
<path d="M55.1917 64.6935C54.4224 64.6935 53.6471 64.5515 52.9852 64.3206C51.2836 63.7267 50.1949 62.5964 50.0732 61.2987L50.0704 61.2678L50.073 61.2371C50.2896 58.82 50.1161 54.7963 50.0788 54.0102L22.8577 28.6958L23.3143 28.2051L50.7344 53.7044L50.7418 53.8402C50.7516 54.0314 50.9827 58.5401 50.7436 61.2652C50.8546 62.2831 51.7724 63.187 53.2062 63.6875C54.9474 64.2955 56.7733 64.0868 57.6451 63.1794C58.9394 61.8329 59.0906 60.0546 59.201 58.7568C59.201 58.7566 59.201 58.7564 59.2011 58.7562C59.2011 58.7561 59.2011 58.7559 59.2011 58.7557C59.2596 58.0683 59.3058 57.5259 59.5135 57.1901C59.7561 56.7981 60.5103 56.5179 61.9332 56.015C61.9337 56.0148 61.9342 56.0146 61.9347 56.0145C63.4987 55.4617 65.8609 54.6269 66.0216 53.6828L66.0621 53.4494C66.5877 50.4357 66.6147 47.5642 63.2953 46.9401C61.8352 47.089 61.0357 47.3869 60.392 47.6267C60.3918 47.6268 60.3916 47.6269 60.3914 47.6269C59.483 47.9657 58.8261 48.2101 57.216 47.7837C54.5124 47.0677 42.486 35.8014 41.9754 35.3223L42.434 34.8333C46.717 38.8531 55.3541 46.597 57.3875 47.1358C58.793 47.5079 59.306 47.3161 60.1576 46.9989C60.8443 46.7424 61.6996 46.4239 63.2764 46.2683L63.323 46.2637L63.3689 46.2722C67.8536 47.0801 67.0611 51.6236 66.7227 53.5642L66.6824 53.7949C66.4553 55.1283 64.1717 55.9355 62.1561 56.6472C61.3399 56.9354 60.2216 57.3305 60.0835 57.543C59.9601 57.742 59.9159 58.2625 59.8691 58.8131C59.7569 60.1321 59.5871 62.1257 58.1285 63.6442C57.4056 64.3963 56.3052 64.6935 55.1917 64.6935Z" fill="white"/>
<path d="M50.7344 53.7044L23.3143 28.2051L41.9754 35.3223C42.486 35.8014 54.5124 47.0677 57.216 47.7837C58.8261 48.2101 59.483 47.9657 60.3914 47.6269L60.392 47.6267C61.0357 47.3869 61.8352 47.089 63.2953 46.9401C66.6147 47.5642 66.5877 50.4357 66.0621 53.4494L66.0216 53.6828C65.8609 54.6269 63.4987 55.4617 61.9347 56.0145L61.9332 56.015C60.5103 56.5179 59.7561 56.7981 59.5135 57.1901C59.3058 57.5259 59.2596 58.0683 59.2011 58.7557L59.2011 58.7562L59.201 58.7568C59.0906 60.0546 58.9394 61.8329 57.6451 63.1794C56.7733 64.0868 54.9474 64.2955 53.2062 63.6875C51.7724 63.187 50.8546 62.2831 50.7436 61.2652C50.9827 58.5401 50.7516 54.0314 50.7418 53.8402L50.7344 53.7044Z" fill="white"/>
<path d="M15.583 3.87939C16.3522 3.87939 17.1276 4.02133 17.7895 4.25231C19.4911 4.84619 20.5798 5.97647 20.7015 7.27416L20.7043 7.30507L20.7017 7.33576C20.485 9.75285 20.6586 13.7765 20.6958 14.5626L47.917 39.8771L47.4604 40.3677L20.0402 14.8685L20.0328 14.7327C20.023 14.5415 19.792 10.0328 20.0311 7.30768C19.92 6.28973 19.0023 5.38586 17.5685 4.88537C15.8273 4.27734 14.0013 4.48612 13.1295 5.39347C11.8353 6.73996 11.684 8.51823 11.5737 9.81609C11.5736 9.81627 11.5736 9.81645 11.5736 9.81664C11.5736 9.81682 11.5736 9.817 11.5736 9.81718C11.515 10.5046 11.4688 11.0469 11.2612 11.3827C11.0186 11.7748 10.2644 12.055 8.84147 12.5579C8.84097 12.5581 8.84047 12.5582 8.83997 12.5584C7.27597 13.1111 4.91371 13.946 4.75307 14.8901L4.71257 15.1234C4.18696 18.1372 4.15996 21.0086 7.47932 21.6328C8.93945 21.4839 9.73893 21.186 10.3827 20.9462C10.3829 20.9461 10.3831 20.946 10.3833 20.9459C11.2916 20.6072 11.9485 20.3627 13.5587 20.7892C16.2623 21.5052 28.2887 32.7714 28.7992 33.2506L28.3407 33.7395C24.0576 29.7198 15.4205 21.9759 13.3871 21.4371C11.9816 21.065 11.4687 21.2568 10.6171 21.574C9.93037 21.8304 9.0751 22.1489 7.49827 22.3046L7.45167 22.3092L7.40573 22.3007C2.92105 21.4928 3.7136 16.9492 4.05196 15.0087L4.09225 14.7779C4.31934 13.4446 6.60294 12.6373 8.61851 11.9257C9.4348 11.6375 10.5531 11.2423 10.6911 11.0299C10.8146 10.8309 10.8588 10.3104 10.9056 9.75982C11.0177 8.44079 11.1876 6.44713 12.6462 4.92869C13.369 4.17655 14.4695 3.87939 15.583 3.87939Z" fill="white"/>
<path d="M20.0402 14.8685L47.4604 40.3677L28.7992 33.2506C28.2887 32.7714 16.2623 21.5052 13.5587 20.7892C11.9485 20.3627 11.2916 20.6072 10.3833 20.9459L10.3827 20.9462C9.73893 21.186 8.93945 21.4839 7.47932 21.6328C4.15996 21.0086 4.18696 18.1372 4.71257 15.1234L4.75307 14.8901C4.91371 13.946 7.27597 13.1111 8.83997 12.5584L8.84147 12.5579C10.2644 12.055 11.0186 11.7748 11.2612 11.3827C11.4688 11.0469 11.515 10.5046 11.5736 9.81718L11.5736 9.81664L11.5737 9.81609C11.684 8.51823 11.8353 6.73996 13.1295 5.39347C14.0013 4.48612 15.8273 4.27734 17.5685 4.88537C19.0023 5.38586 19.92 6.28973 20.0311 7.30768C19.792 10.0328 20.023 14.5415 20.0328 14.7327L20.0402 14.8685Z" fill="white"/>
<path d="M1.02002 51.2249C1.08648 50.4585 1.29486 49.6983 1.58216 49.0588C2.32081 47.4149 3.54091 46.4279 4.84426 46.4188L4.8753 46.4186L4.90566 46.4239C7.29499 46.8485 11.3186 47.0232 12.105 47.054L39.6763 22.1214L40.1257 22.6187L12.3531 47.7336L12.2171 47.7292C12.0259 47.7225 7.51404 47.5631 4.81975 47.0896C3.79601 47.1122 2.81623 47.9485 2.19376 49.3337C1.43759 51.0159 1.48785 52.853 2.3165 53.7999C3.54615 55.2057 5.30471 55.51 6.58818 55.732C6.58836 55.7321 6.58854 55.7321 6.58872 55.7321C6.5889 55.7322 6.58907 55.7322 6.58925 55.7322C7.26907 55.8499 7.80536 55.9428 8.12198 56.1787C8.49163 56.4542 8.70561 57.2298 9.08369 58.6909C9.08382 58.6914 9.08396 58.6919 9.08409 58.6924C9.49965 60.2983 10.1273 62.7239 11.054 62.9654L11.283 63.026C14.2401 63.81 17.0984 64.0849 18.007 60.8319C17.9848 59.3643 17.7571 58.5421 17.5738 57.88C17.5737 57.8799 17.5736 57.8797 17.5736 57.8795C17.3146 56.9452 17.1278 56.2696 17.6917 54.7023C18.6386 52.0707 30.9017 41.0625 31.4231 40.5953L31.8706 41.0943C27.4959 45.0141 19.0348 52.95 18.3224 54.9293C17.8303 56.2973 17.9771 56.825 18.2195 57.7007C18.4157 58.4071 18.6591 59.2866 18.6779 60.871L18.6785 60.9178L18.666 60.9629C17.4738 65.361 13.0157 64.1789 11.1116 63.6742L10.8852 63.6141C9.5764 63.2727 8.96947 60.9279 8.4346 58.8584C8.21796 58.0202 7.92093 56.872 7.72117 56.7161C7.53361 56.5759 7.01886 56.4869 6.4744 56.3927C5.17 56.1671 3.19846 55.8257 1.8117 54.2413C1.12482 53.4562 0.923834 52.3342 1.02002 51.2249Z" fill="white"/>
<path d="M12.3531 47.7336L40.1257 22.6187L31.4231 40.5953C30.9017 41.0625 18.6386 52.0707 17.6917 54.7023C17.1278 56.2696 17.3146 56.9452 17.5736 57.8795L17.5738 57.88C17.7571 58.5421 17.9848 59.3643 18.007 60.8319C17.0984 64.0849 14.2401 63.81 11.283 63.026L11.054 62.9654C10.1273 62.7239 9.49965 60.2983 9.08409 58.6924L9.08369 58.6909C8.70561 57.2298 8.49163 56.4542 8.12198 56.1787C7.80536 55.9428 7.26907 55.8499 6.58925 55.7322L6.58872 55.7321L6.58818 55.732C5.30471 55.51 3.54615 55.2057 2.3165 53.7999C1.48785 52.853 1.43759 51.0159 2.19376 49.3337C2.81623 47.9485 3.79601 47.1122 4.81975 47.0896C7.51404 47.5631 12.0259 47.7225 12.2171 47.7292L12.3531 47.7336Z" fill="white"/>
<path d="M65.0283 17.0179C64.9619 17.7843 64.7535 18.5445 64.4662 19.184C63.7275 20.8279 62.5074 21.8149 61.2041 21.824L61.173 21.8242L61.1427 21.8189C58.7533 21.3943 54.7297 21.2196 53.9433 21.1888L26.372 46.1214L25.9226 45.6241L53.6952 20.5092L53.8312 20.5136C54.0225 20.5203 58.5343 20.6797 61.2286 21.1532C62.2523 21.1306 63.2321 20.2943 63.8546 18.9091C64.6107 17.2269 64.5605 15.3898 63.7318 14.4429C62.5022 13.0371 60.7436 12.7328 59.4602 12.5108C59.46 12.5107 59.4598 12.5107 59.4596 12.5107C59.4594 12.5106 59.4593 12.5106 59.4591 12.5106C58.7793 12.3929 58.243 12.3 57.9264 12.0641C57.5567 11.7886 57.3427 11.013 56.9647 9.55194C56.9645 9.55142 56.9644 9.5509 56.9643 9.55039C56.5487 7.94449 55.921 5.51894 54.9944 5.27735L54.7654 5.21684C51.8082 4.43285 48.9499 4.1579 48.0413 7.41093C48.0635 8.87846 48.2912 9.70069 48.4746 10.3627C48.4746 10.3629 48.4747 10.3631 48.4747 10.3633C48.7337 11.2976 48.9206 11.9732 48.3566 13.5404C47.4097 16.1721 35.1467 27.1802 34.6252 27.6475L34.1777 27.1485C38.5524 23.2287 47.0135 15.2928 47.726 13.3135C48.218 11.9455 48.0713 11.4178 47.8288 10.5421C47.6327 9.83574 47.3893 8.95616 47.3704 7.37177L47.3699 7.32496L47.3823 7.27992C48.5746 2.88179 53.0327 4.06388 54.9367 4.56861L55.1631 4.62868C56.4719 4.97011 57.0789 7.31491 57.6137 9.38442C57.8304 10.2226 58.1274 11.3708 58.3272 11.5267C58.5147 11.6669 59.0295 11.7559 59.5739 11.8501C60.8783 12.0757 62.8499 12.4171 64.2366 14.0015C64.9235 14.7866 65.1245 15.9086 65.0283 17.0179Z" fill="white"/>
<path d="M53.6952 20.5092L25.9226 45.6241L34.6252 27.6475C35.1467 27.1802 47.4097 16.1721 48.3566 13.5404C48.9206 11.9732 48.7337 11.2976 48.4747 10.3633L48.4746 10.3627C48.2912 9.70069 48.0635 8.87846 48.0413 7.41093C48.9499 4.1579 51.8082 4.43285 54.7654 5.21684L54.9944 5.27735C55.921 5.51894 56.5487 7.94449 56.9643 9.55039L56.9647 9.55194C57.3427 11.013 57.5567 11.7886 57.9264 12.0641C58.243 12.3 58.7793 12.3929 59.4591 12.5106L59.4596 12.5107L59.4602 12.5108C60.7436 12.7328 62.5022 13.0371 63.7318 14.4429C64.5605 15.3898 64.6107 17.2269 63.8546 18.9091C63.2321 20.2943 62.2523 21.1306 61.2286 21.1532C58.5343 20.6797 54.0225 20.5203 53.8312 20.5136L53.6952 20.5092Z" fill="white"/>
<path d="M26.6455 22.5598C26.6455 22.5598 26.7331 9.86841 33.7726 4.0967C40.6806 9.20885 40.9972 22.7277 40.9251 22.8943" fill="#C19BDF"/>
<path d="M48.6968 29.2561C48.6968 29.2561 56.9341 30.5925 63.5955 21.7841C64.0127 21.7354 63.822 21.7542 64.0127 21.7354C64.6545 27.1837 62.746 40.8623 45.5479 42.0529" fill="#C19BDF"/>
<path d="M48.6601 34.5993C60.3136 32.0826 63.7056 22.6898 63.7056 22.6898L63.9848 21.7841C64.402 21.7354 64.2113 21.7542 64.402 21.7354C65.0438 27.1837 63.1353 40.8622 45.9372 42.0529L42.1099 40.3315L43.1635 37.6265L44.8369 35.5542L48.6601 34.5993Z" fill="#A06BC0"/>
<path d="M40.9324 22.4152C40.9324 22.4152 50.3041 18.9779 50.1337 7.64331C50.316 7.29411 50.3587 7.32919 50.6606 7.64331C50.7161 7.70058 50.7716 7.75867 50.8272 7.81791C54.7322 11.9774 59.4005 20.6862 48.3726 30.9219" fill="#C19BDF"/>
<path d="M48.2276 31.1323C59.2556 20.8966 54.7322 11.618 50.8271 7.45913C50.7714 7.39974 50.7159 7.34165 50.6604 7.28388C50.3586 6.97042 50.1037 7.6811 50.1037 7.6811C50.1037 7.6811 54.311 15.9608 45.2304 24.746L44.2566 25.8525L45.1733 29.5436L47.1065 30.7992L48.2276 31.1323Z" fill="#A06BC0"/>
<path d="M18.5726 29.1729C18.5726 29.1729 10.5104 30.4508 3.78936 21.6423C3.36869 21.5937 3.56108 21.6125 3.36869 21.5937C2.72088 27.0419 4.64669 40.7206 21.9984 41.9111" fill="#C19BDF"/>
<path d="M18.8578 34.4576C7.10047 31.9409 3.39621 22.4251 3.39621 22.4251V21.6423C2.97538 21.5937 3.1676 21.6125 2.97538 21.5937C2.32757 27.0419 4.25354 40.7204 21.6049 41.9111L25.4665 40.1898L24.4034 37.4848L22.715 35.4125L18.8578 34.4576Z" fill="#A06BC0"/>
<path d="M26.4947 23.173C26.4947 23.173 17.123 19.7352 17.2932 8.40063C17.1111 8.05159 17.0684 8.087 16.7663 8.40063C16.711 8.4579 16.6555 8.51648 16.5999 8.57539C12.6947 12.7348 8.02643 21.444 19.0545 31.6797" fill="#C19BDF"/>
<path d="M19.1485 32.0702C8.12053 21.835 12.695 12.3759 16.6003 8.21653C16.6558 8.15746 16.7113 8.09888 16.7666 8.04177C17.0687 7.72815 17.2724 8.14994 17.2724 8.14994C17.2724 8.14994 13.1162 16.7185 22.1965 25.5034L23.1706 26.6098L22.2541 30.3015L20.3206 31.5566L19.1485 32.0702Z" fill="#A06BC0"/>
<path d="M45.1972 42.8535C45.1972 42.8535 50.5778 50.0706 57.2653 49.1077C57.2393 49.2133 57.2302 49.2508 57.1514 49.3525C49.6063 56.373 38.2544 53.9253 33.7424 47.8685" fill="#C19BDF"/>
<path d="M33.4268 47.8687C37.9388 53.9253 49.1253 56.9135 56.6702 49.8932C56.749 49.7915 57.5823 49.0605 57.6083 48.9551L56.319 49.5017C56.319 49.5017 49.5658 51.7622 40.3651 46.4773L38.4959 43.5939C38.4959 43.5939 37.0355 43.7478 36.8817 43.7478C36.7279 43.7478 33.7688 44.7853 33.7688 44.7853L32.001 46.7452L33.4268 47.8687Z" fill="#A06BC0"/>
<path d="M22.0668 42.8418C22.0668 42.8418 16.6862 50.0589 9.99878 49.0957C10.0247 49.2019 10.0339 49.2388 10.1127 49.3405C17.6576 56.3616 29.0098 53.914 33.5218 47.8572" fill="#C19BDF"/>
<path d="M33.8372 47.8571C29.3252 53.9137 17.8494 56.5109 10.3043 49.4899C10.2255 49.3882 9.7936 49.0611 9.76782 48.9551L10.945 49.4898C10.945 49.4898 17.698 51.7506 26.8987 46.4657L28.7681 43.582C28.7681 43.582 30.2285 43.7356 30.3821 43.7356C30.5359 43.7356 33.495 44.7734 33.495 44.7734L35.263 46.7329L33.8372 47.8571Z" fill="#A06BC0"/>
<path d="M18.96 34.1006C18.96 41.7863 25.6316 48.0162 33.8617 48.0162C42.0917 48.0162 48.7635 41.7863 48.7635 34.1006C48.7635 26.4148 42.0917 20.1847 33.8617 20.1847C25.6316 20.1847 18.96 26.4148 18.96 34.1006Z" fill="#E5AFE6"/>
<path d="M39.8661 24.6287C39.0295 25.5579 39.6401 27.4714 41.2295 28.9022C42.8186 30.3331 44.7854 30.7397 45.6223 29.8104C46.4588 28.8813 45.8483 26.9682 44.259 25.537C42.6695 24.1062 40.7026 23.6996 39.8661 24.6287Z" fill="white"/>
<path d="M27.6453 24.7183C28.4817 25.6474 27.8713 27.5605 26.2818 28.9917C24.6927 30.4224 22.7258 30.8292 21.8892 29.8999C21.0524 28.9708 21.6629 27.0577 23.2524 25.6265C24.8419 24.1958 26.8088 23.7891 27.6453 24.7183Z" fill="white"/>
<path d="M25.5186 33.2464C25.5186 37.2553 29.1802 40.5051 33.6974 40.5051C38.2143 40.5051 41.876 37.2553 41.876 33.2464C41.876 29.2373 38.2143 25.9875 33.6974 25.9875C29.1802 25.9875 25.5186 29.2373 25.5186 33.2464Z" fill="white"/>
<path d="M40.7107 25.247C40.1166 25.7657 40.409 27.0723 41.3639 28.1659C42.3182 29.2591 43.5736 29.7247 44.1681 29.2061C44.7619 28.6875 44.4694 27.3809 43.5149 26.2877C42.5601 25.1943 41.3046 24.7283 40.7107 25.247Z" fill="#654280"/>
<path d="M26.6653 25.3334C27.2592 25.8521 26.9669 27.1586 26.0123 28.2523C25.0577 29.3452 23.8023 29.8107 23.2078 29.2925C22.614 28.7738 22.9064 27.4673 23.8609 26.3736C24.8158 25.2807 26.0713 24.8147 26.6653 25.3334Z" fill="#654280"/>
<path d="M31.9644 27.2853C31.9644 27.9693 32.7267 28.5239 33.6671 28.5239C34.6071 28.5239 35.3696 27.9693 35.3696 27.2853C35.3696 26.6013 34.6071 26.047 33.6671 26.047C32.7267 26.047 31.9644 26.6013 31.9644 27.2853Z" fill="#654280"/>
<path d="M34.157 34.8331H33.219V28.2668H34.157V34.8331Z" fill="#654280"/>
<path d="M33.7366 34.9332C30.269 34.9332 26.5735 34.2943 25.7146 32.9618L25.9956 32.8148C26.8616 34.1587 31.2396 34.7847 34.9722 34.6126C38.4786 34.4514 41.0046 33.6567 41.5644 32.5394L41.8605 32.6594C41.2412 33.896 38.6721 34.7354 34.9887 34.9049C34.5785 34.924 34.1589 34.9332 33.7366 34.9332Z" fill="#654280"/>
</svg>
