<svg width="85" height="98" viewBox="0 0 85 98" fill="none" xmlns="http://www.w3.org/2000/svg">
<path d="M2.31818 92V74.5455H7.9517C9.19034 74.5455 10.2244 74.7841 11.054 75.2614C11.8892 75.733 12.517 76.375 12.9375 77.1875C13.3636 78 13.5767 78.9148 13.5767 79.9318C13.5767 80.9489 13.3665 81.8665 12.946 82.6847C12.5256 83.4972 11.9006 84.142 11.071 84.6193C10.2415 85.0909 9.21023 85.3267 7.97727 85.3267H3.54545V83.8949H7.93466C8.84943 83.8949 9.60795 83.7244 10.2102 83.3835C10.8125 83.0369 11.2614 82.5653 11.5568 81.9688C11.858 81.3722 12.0085 80.6932 12.0085 79.9318C12.0085 79.1705 11.858 78.4915 11.5568 77.8949C11.2614 77.2983 10.8097 76.8295 10.2017 76.4886C9.59943 76.1477 8.83523 75.9773 7.90909 75.9773H3.91193V92H2.31818ZM17.0028 92V78.9091H18.4773V80.9205H18.5881C18.8494 80.2614 19.304 79.7301 19.9517 79.3267C20.6051 78.9176 21.3438 78.7131 22.1676 78.7131C22.2926 78.7131 22.4318 78.7159 22.5852 78.7216C22.7386 78.7273 22.8665 78.733 22.9688 78.7386V80.2812C22.9006 80.2699 22.7813 80.2528 22.6108 80.2301C22.4403 80.2074 22.2557 80.196 22.0568 80.196C21.375 80.196 20.767 80.3409 20.233 80.6307C19.7045 80.9148 19.2869 81.3097 18.9801 81.8153C18.6733 82.321 18.5199 82.8977 18.5199 83.5455V92H17.0028ZM25.5746 92V78.9091H27.1001V92H25.5746ZM26.3501 76.6591C26.0376 76.6591 25.7706 76.554 25.549 76.3438C25.3274 76.1278 25.2166 75.8693 25.2166 75.5682C25.2166 75.267 25.3274 75.0114 25.549 74.8011C25.7706 74.5852 26.0376 74.4773 26.3501 74.4773C26.6626 74.4773 26.9297 74.5852 27.1513 74.8011C27.3729 75.0114 27.4837 75.267 27.4837 75.5682C27.4837 75.8693 27.3729 76.1278 27.1513 76.3438C26.9297 76.554 26.6626 76.6591 26.3501 76.6591ZM32.6293 83.8182V92H31.1122V78.9091H32.5866V80.9631H32.723C33.0298 80.2926 33.5071 79.7557 34.1548 79.3523C34.8082 78.9432 35.6151 78.7386 36.5753 78.7386C37.456 78.7386 38.2287 78.9233 38.8935 79.2926C39.5639 79.6562 40.0838 80.1932 40.4531 80.9034C40.8281 81.6136 41.0156 82.4858 41.0156 83.5199V92H39.4986V83.6136C39.4986 82.5398 39.1974 81.6903 38.5952 81.0653C37.9986 80.4403 37.1974 80.1278 36.1918 80.1278C35.5043 80.1278 34.8935 80.2756 34.3594 80.571C33.8253 80.8665 33.402 81.2926 33.0895 81.8494C32.7827 82.4006 32.6293 83.0568 32.6293 83.8182ZM50.1669 78.9091V80.2301H43.9197V78.9091H50.1669ZM45.8714 75.7727H47.397V88.5824C47.397 89.1278 47.4908 89.5568 47.6783 89.8693C47.8658 90.1761 48.1101 90.3949 48.4112 90.5256C48.7124 90.6506 49.0334 90.7131 49.3743 90.7131C49.5732 90.7131 49.7436 90.7017 49.8857 90.679C50.0277 90.6506 50.1527 90.6222 50.2607 90.5938L50.5845 91.9659C50.4368 92.0227 50.255 92.0739 50.0391 92.1193C49.8232 92.1705 49.5561 92.196 49.2379 92.196C48.6811 92.196 48.1442 92.0739 47.6271 91.8295C47.1158 91.5852 46.6953 91.2216 46.3658 90.7386C46.0362 90.2557 45.8714 89.6562 45.8714 88.9403V75.7727Z" fill="white"/>
<path d="M64.7003 80.1875C64.581 79.7727 64.4134 79.4062 64.1974 79.0881C63.9815 78.7642 63.7173 78.4915 63.4048 78.2699C63.098 78.0426 62.7457 77.8693 62.348 77.75C61.956 77.6307 61.5213 77.571 61.044 77.571C60.152 77.571 59.3679 77.7926 58.6918 78.2358C58.0213 78.679 57.4986 79.3239 57.1236 80.1705C56.7486 81.0114 56.5611 82.0398 56.5611 83.2557C56.5611 84.4716 56.7457 85.5057 57.1151 86.358C57.4844 87.2102 58.0071 87.8608 58.6832 88.3097C59.3594 88.7528 60.1577 88.9744 61.0781 88.9744C61.9134 88.9744 62.6264 88.8267 63.2173 88.5312C63.8139 88.2301 64.2685 87.8068 64.581 87.2614C64.8991 86.7159 65.0582 86.071 65.0582 85.3267L65.8082 85.4375H61.3082V82.6591H68.6122V84.858C68.6122 86.392 68.2884 87.7102 67.6406 88.8125C66.9929 89.9091 66.1009 90.7557 64.9645 91.3523C63.8281 91.9432 62.527 92.2386 61.0611 92.2386C59.4247 92.2386 57.9872 91.8778 56.7486 91.1562C55.5099 90.429 54.544 89.3977 53.8509 88.0625C53.1634 86.7216 52.8196 85.1307 52.8196 83.2898C52.8196 81.875 53.0241 80.6136 53.4332 79.5057C53.848 78.392 54.4276 77.4489 55.1719 76.6761C55.9162 75.9034 56.7827 75.3153 57.7713 74.9119C58.7599 74.5085 59.831 74.3068 60.9844 74.3068C61.973 74.3068 62.8935 74.4517 63.7457 74.7415C64.598 75.0256 65.3537 75.429 66.0128 75.9517C66.6776 76.4744 67.2202 77.0966 67.6406 77.8182C68.0611 78.5341 68.331 79.3239 68.4503 80.1875H64.7003ZM77.2308 92.2557C75.907 92.2557 74.7621 91.9744 73.7962 91.4119C72.8359 90.8437 72.0945 90.054 71.5717 89.0426C71.049 88.0256 70.7876 86.8466 70.7876 85.5057C70.7876 84.1534 71.049 82.9716 71.5717 81.9602C72.0945 80.9432 72.8359 80.1534 73.7962 79.5909C74.7621 79.0227 75.907 78.7386 77.2308 78.7386C78.5547 78.7386 79.6967 79.0227 80.657 79.5909C81.6229 80.1534 82.3672 80.9432 82.8899 81.9602C83.4126 82.9716 83.674 84.1534 83.674 85.5057C83.674 86.8466 83.4126 88.0256 82.8899 89.0426C82.3672 90.054 81.6229 90.8437 80.657 91.4119C79.6967 91.9744 78.5547 92.2557 77.2308 92.2557ZM77.2479 89.4432C77.8501 89.4432 78.353 89.2727 78.7564 88.9318C79.1598 88.5852 79.4638 88.1136 79.6683 87.517C79.8786 86.9205 79.9837 86.2415 79.9837 85.4801C79.9837 84.7188 79.8786 84.0398 79.6683 83.4432C79.4638 82.8466 79.1598 82.375 78.7564 82.0284C78.353 81.6818 77.8501 81.5085 77.2479 81.5085C76.6399 81.5085 76.1286 81.6818 75.7138 82.0284C75.3047 82.375 74.995 82.8466 74.7848 83.4432C74.5803 84.0398 74.478 84.7188 74.478 85.4801C74.478 86.2415 74.5803 86.9205 74.7848 87.517C74.995 88.1136 75.3047 88.5852 75.7138 88.9318C76.1286 89.2727 76.6399 89.4432 77.2479 89.4432Z" fill="#AE81D1"/>
<path d="M64.1917 64.6935C63.4224 64.6935 62.6471 64.5515 61.9852 64.3206C60.2836 63.7267 59.1949 62.5964 59.0732 61.2987L59.0704 61.2678L59.073 61.2371C59.2896 58.82 59.1161 54.7963 59.0788 54.0102L31.8577 28.6958L32.3143 28.2051L59.7344 53.7044L59.7418 53.8402C59.7516 54.0314 59.9827 58.5401 59.7436 61.2652C59.8546 62.2831 60.7724 63.187 62.2062 63.6875C63.9474 64.2955 65.7733 64.0868 66.6451 63.1794C67.9394 61.8329 68.0906 60.0546 68.201 58.7568C68.201 58.7566 68.201 58.7564 68.2011 58.7562C68.2011 58.7561 68.2011 58.7559 68.2011 58.7557C68.2596 58.0683 68.3058 57.5259 68.5135 57.1901C68.7561 56.7981 69.5103 56.5179 70.9332 56.015C70.9337 56.0148 70.9342 56.0146 70.9347 56.0145C72.4987 55.4617 74.8609 54.6269 75.0216 53.6828L75.0621 53.4494C75.5877 50.4357 75.6147 47.5642 72.2953 46.9401C70.8352 47.089 70.0357 47.3869 69.392 47.6267C69.3918 47.6268 69.3916 47.6269 69.3914 47.6269C68.483 47.9657 67.8261 48.2101 66.216 47.7837C63.5124 47.0677 51.486 35.8014 50.9754 35.3223L51.434 34.8333C55.717 38.8531 64.3541 46.597 66.3875 47.1358C67.793 47.5079 68.306 47.3161 69.1576 46.9989C69.8443 46.7424 70.6996 46.4239 72.2764 46.2683L72.323 46.2637L72.3689 46.2722C76.8536 47.0801 76.0611 51.6236 75.7227 53.5642L75.6824 53.7949C75.4553 55.1283 73.1717 55.9355 71.1561 56.6472C70.3399 56.9354 69.2216 57.3305 69.0835 57.543C68.9601 57.742 68.9159 58.2625 68.8691 58.8131C68.7569 60.1321 68.5871 62.1257 67.1285 63.6442C66.4056 64.3963 65.3052 64.6935 64.1917 64.6935Z" fill="white"/>
<path d="M59.7344 53.7044L32.3143 28.2051L50.9754 35.3223C51.486 35.8014 63.5124 47.0677 66.216 47.7837C67.8261 48.2101 68.483 47.9657 69.3914 47.6269L69.392 47.6267C70.0357 47.3869 70.8352 47.089 72.2953 46.9401C75.6147 47.5642 75.5877 50.4357 75.0621 53.4494L75.0216 53.6828C74.8609 54.6269 72.4987 55.4617 70.9347 56.0145L70.9332 56.015C69.5103 56.5179 68.7561 56.7981 68.5135 57.1901C68.3058 57.5259 68.2596 58.0683 68.2011 58.7557L68.2011 58.7562L68.201 58.7568C68.0906 60.0546 67.9394 61.8329 66.6451 63.1794C65.7733 64.0868 63.9474 64.2955 62.2062 63.6875C60.7724 63.187 59.8546 62.2831 59.7436 61.2652C59.9827 58.5401 59.7516 54.0314 59.7418 53.8402L59.7344 53.7044Z" fill="white"/>
<path d="M24.583 3.87939C25.3522 3.87939 26.1276 4.02133 26.7895 4.25231C28.4911 4.84619 29.5798 5.97647 29.7015 7.27416L29.7043 7.30507L29.7017 7.33576C29.485 9.75285 29.6586 13.7765 29.6958 14.5626L56.917 39.8771L56.4604 40.3677L29.0402 14.8685L29.0328 14.7327C29.023 14.5415 28.792 10.0328 29.0311 7.30768C28.92 6.28973 28.0023 5.38586 26.5685 4.88537C24.8273 4.27734 23.0013 4.48612 22.1295 5.39347C20.8353 6.73996 20.684 8.51823 20.5737 9.81609C20.5736 9.81627 20.5736 9.81645 20.5736 9.81664C20.5736 9.81682 20.5736 9.817 20.5736 9.81718C20.515 10.5046 20.4688 11.0469 20.2612 11.3827C20.0186 11.7748 19.2644 12.055 17.8415 12.5579C17.841 12.5581 17.8405 12.5582 17.84 12.5584C16.276 13.1111 13.9137 13.946 13.7531 14.8901L13.7126 15.1234C13.187 18.1372 13.16 21.0086 16.4793 21.6328C17.9395 21.4839 18.7389 21.186 19.3827 20.9462C19.3829 20.9461 19.3831 20.946 19.3833 20.9459C20.2916 20.6072 20.9485 20.3627 22.5587 20.7892C25.2623 21.5052 37.2887 32.7714 37.7992 33.2506L37.3407 33.7395C33.0576 29.7198 24.4205 21.9759 22.3871 21.4371C20.9816 21.065 20.4687 21.2568 19.6171 21.574C18.9304 21.8304 18.0751 22.1489 16.4983 22.3046L16.4517 22.3092L16.4057 22.3007C11.9211 21.4928 12.7136 16.9492 13.052 15.0087L13.0922 14.7779C13.3193 13.4446 15.6029 12.6373 17.6185 11.9257C18.4348 11.6375 19.5531 11.2423 19.6911 11.0299C19.8146 10.8309 19.8588 10.3104 19.9056 9.75982C20.0177 8.44079 20.1876 6.44713 21.6462 4.92869C22.369 4.17655 23.4695 3.87939 24.583 3.87939Z" fill="white"/>
<path d="M29.0402 14.8685L56.4604 40.3677L37.7992 33.2506C37.2887 32.7714 25.2623 21.5052 22.5587 20.7892C20.9485 20.3627 20.2916 20.6072 19.3833 20.9459L19.3827 20.9462C18.7389 21.186 17.9395 21.4839 16.4793 21.6328C13.16 21.0086 13.187 18.1372 13.7126 15.1234L13.7531 14.8901C13.9137 13.946 16.276 13.1111 17.84 12.5584L17.8415 12.5579C19.2644 12.055 20.0186 11.7748 20.2612 11.3827C20.4688 11.0469 20.515 10.5046 20.5736 9.81718L20.5736 9.81664L20.5737 9.81609C20.684 8.51823 20.8353 6.73996 22.1295 5.39347C23.0013 4.48612 24.8273 4.27734 26.5685 4.88537C28.0023 5.38586 28.92 6.28973 29.0311 7.30768C28.792 10.0328 29.023 14.5415 29.0328 14.7327L29.0402 14.8685Z" fill="white"/>
<path d="M10.02 51.2249C10.0865 50.4585 10.2949 49.6983 10.5822 49.0588C11.3208 47.4149 12.5409 46.4279 13.8443 46.4188L13.8753 46.4186L13.9057 46.4239C16.295 46.8485 20.3186 47.0232 21.105 47.054L48.6763 22.1214L49.1257 22.6187L21.3531 47.7336L21.2171 47.7292C21.0259 47.7225 16.514 47.5631 13.8197 47.0896C12.796 47.1122 11.8162 47.9485 11.1938 49.3337C10.4376 51.0159 10.4878 52.853 11.3165 53.7999C12.5461 55.2057 14.3047 55.51 15.5882 55.732C15.5884 55.7321 15.5885 55.7321 15.5887 55.7321C15.5889 55.7322 15.5891 55.7322 15.5893 55.7322C16.2691 55.8499 16.8054 55.9428 17.122 56.1787C17.4916 56.4542 17.7056 57.2298 18.0837 58.6909C18.0838 58.6914 18.084 58.6919 18.0841 58.6924C18.4997 60.2983 19.1273 62.7239 20.054 62.9654L20.283 63.026C23.2401 63.81 26.0984 64.0849 27.007 60.8319C26.9848 59.3643 26.7571 58.5421 26.5738 57.88C26.5737 57.8799 26.5736 57.8797 26.5736 57.8795C26.3146 56.9452 26.1278 56.2696 26.6917 54.7023C27.6386 52.0707 39.9017 41.0625 40.4231 40.5953L40.8706 41.0943C36.4959 45.0141 28.0348 52.95 27.3224 54.9293C26.8303 56.2973 26.9771 56.825 27.2195 57.7007C27.4157 58.4071 27.6591 59.2866 27.6779 60.871L27.6785 60.9178L27.666 60.9629C26.4738 65.361 22.0157 64.1789 20.1116 63.6742L19.8852 63.6141C18.5764 63.2727 17.9695 60.9279 17.4346 58.8584C17.218 58.0202 16.9209 56.872 16.7212 56.7161C16.5336 56.5759 16.0189 56.4869 15.4744 56.3927C14.17 56.1671 12.1985 55.8257 10.8117 54.2413C10.1248 53.4562 9.92383 52.3342 10.02 51.2249Z" fill="white"/>
<path d="M21.3531 47.7336L49.1257 22.6187L40.4231 40.5953C39.9017 41.0625 27.6386 52.0707 26.6917 54.7023C26.1278 56.2696 26.3146 56.9452 26.5736 57.8795L26.5738 57.88C26.7571 58.5421 26.9848 59.3643 27.007 60.8319C26.0984 64.0849 23.2401 63.81 20.283 63.026L20.054 62.9654C19.1273 62.7239 18.4997 60.2983 18.0841 58.6924L18.0837 58.6909C17.7056 57.2298 17.4916 56.4542 17.122 56.1787C16.8054 55.9428 16.2691 55.8499 15.5893 55.7322L15.5887 55.7321L15.5882 55.732C14.3047 55.51 12.5461 55.2057 11.3165 53.7999C10.4878 52.853 10.4376 51.0159 11.1938 49.3337C11.8162 47.9485 12.796 47.1122 13.8197 47.0896C16.514 47.5631 21.0259 47.7225 21.2171 47.7292L21.3531 47.7336Z" fill="white"/>
<path d="M74.0283 17.0179C73.9619 17.7843 73.7535 18.5445 73.4662 19.184C72.7275 20.8279 71.5074 21.8149 70.2041 21.824L70.173 21.8242L70.1427 21.8189C67.7533 21.3943 63.7297 21.2196 62.9433 21.1888L35.372 46.1214L34.9226 45.6241L62.6952 20.5092L62.8312 20.5136C63.0225 20.5203 67.5343 20.6797 70.2286 21.1532C71.2523 21.1306 72.2321 20.2943 72.8546 18.9091C73.6107 17.2269 73.5605 15.3898 72.7318 14.4429C71.5022 13.0371 69.7436 12.7328 68.4602 12.5108C68.46 12.5107 68.4598 12.5107 68.4596 12.5107C68.4594 12.5106 68.4593 12.5106 68.4591 12.5106C67.7793 12.3929 67.243 12.3 66.9264 12.0641C66.5567 11.7886 66.3427 11.013 65.9647 9.55194C65.9645 9.55142 65.9644 9.5509 65.9643 9.55039C65.5487 7.94449 64.921 5.51894 63.9944 5.27735L63.7654 5.21684C60.8082 4.43285 57.9499 4.1579 57.0413 7.41093C57.0635 8.87846 57.2912 9.70069 57.4746 10.3627C57.4746 10.3629 57.4747 10.3631 57.4747 10.3633C57.7337 11.2976 57.9206 11.9732 57.3566 13.5404C56.4097 16.1721 44.1467 27.1802 43.6252 27.6475L43.1777 27.1485C47.5524 23.2287 56.0135 15.2928 56.726 13.3135C57.218 11.9455 57.0713 11.4178 56.8288 10.5421C56.6327 9.83574 56.3893 8.95616 56.3704 7.37177L56.3699 7.32496L56.3823 7.27992C57.5746 2.88179 62.0327 4.06388 63.9367 4.56861L64.1631 4.62868C65.4719 4.97011 66.0789 7.31491 66.6137 9.38442C66.8304 10.2226 67.1274 11.3708 67.3272 11.5267C67.5147 11.6669 68.0295 11.7559 68.5739 11.8501C69.8783 12.0757 71.8499 12.4171 73.2366 14.0015C73.9235 14.7866 74.1245 15.9086 74.0283 17.0179Z" fill="white"/>
<path d="M62.6952 20.5092L34.9226 45.6241L43.6252 27.6475C44.1467 27.1802 56.4097 16.1721 57.3566 13.5404C57.9206 11.9732 57.7337 11.2976 57.4747 10.3633L57.4746 10.3627C57.2912 9.70069 57.0635 8.87846 57.0413 7.41093C57.9499 4.1579 60.8082 4.43285 63.7654 5.21684L63.9944 5.27735C64.921 5.51894 65.5487 7.94449 65.9643 9.55039L65.9647 9.55194C66.3427 11.013 66.5567 11.7886 66.9264 12.0641C67.243 12.3 67.7793 12.3929 68.4591 12.5106L68.4596 12.5107L68.4602 12.5108C69.7436 12.7328 71.5022 13.0371 72.7318 14.4429C73.5605 15.3898 73.6107 17.2269 72.8546 18.9091C72.2321 20.2943 71.2523 21.1306 70.2286 21.1532C67.5343 20.6797 63.0225 20.5203 62.8312 20.5136L62.6952 20.5092Z" fill="white"/>
<path d="M35.6455 22.5598C35.6455 22.5598 35.7331 9.86841 42.7726 4.0967C49.6806 9.20885 49.9972 22.7277 49.9251 22.8943" fill="#C19BDF"/>
<path d="M57.6968 29.2561C57.6968 29.2561 65.9341 30.5925 72.5955 21.7841C73.0127 21.7354 72.822 21.7542 73.0127 21.7354C73.6545 27.1837 71.746 40.8623 54.5479 42.0529" fill="#C19BDF"/>
<path d="M57.6601 34.5993C69.3136 32.0826 72.7056 22.6898 72.7056 22.6898L72.9848 21.7841C73.402 21.7354 73.2113 21.7542 73.402 21.7354C74.0438 27.1837 72.1353 40.8622 54.9372 42.0529L51.1099 40.3315L52.1635 37.6265L53.8369 35.5542L57.6601 34.5993Z" fill="#A06BC0"/>
<path d="M49.9324 22.4152C49.9324 22.4152 59.3041 18.9779 59.1337 7.64331C59.316 7.29411 59.3587 7.32919 59.6606 7.64331C59.7161 7.70058 59.7716 7.75867 59.8272 7.81791C63.7322 11.9774 68.4005 20.6862 57.3726 30.9219" fill="#C19BDF"/>
<path d="M57.2276 31.1323C68.2556 20.8966 63.7322 11.618 59.8271 7.45913C59.7714 7.39974 59.7159 7.34165 59.6604 7.28388C59.3586 6.97042 59.1037 7.6811 59.1037 7.6811C59.1037 7.6811 63.311 15.9608 54.2304 24.746L53.2566 25.8525L54.1733 29.5436L56.1065 30.7992L57.2276 31.1323Z" fill="#A06BC0"/>
<path d="M27.5726 29.1729C27.5726 29.1729 19.5104 30.4508 12.7894 21.6423C12.3687 21.5937 12.5611 21.6125 12.3687 21.5937C11.7209 27.0419 13.6467 40.7206 30.9984 41.9111" fill="#C19BDF"/>
<path d="M27.8578 34.4576C16.1005 31.9409 12.3962 22.4251 12.3962 22.4251V21.6423C11.9754 21.5937 12.1676 21.6125 11.9754 21.5937C11.3276 27.0419 13.2535 40.7204 30.6049 41.9111L34.4665 40.1898L33.4034 37.4848L31.715 35.4125L27.8578 34.4576Z" fill="#A06BC0"/>
<path d="M35.4947 23.173C35.4947 23.173 26.123 19.7352 26.2932 8.40063C26.1111 8.05159 26.0684 8.087 25.7663 8.40063C25.711 8.4579 25.6555 8.51648 25.5999 8.57539C21.6947 12.7348 17.0264 21.444 28.0545 31.6797" fill="#C19BDF"/>
<path d="M28.1485 32.0702C17.1205 21.835 21.695 12.3759 25.6003 8.21653C25.6558 8.15746 25.7113 8.09888 25.7666 8.04177C26.0687 7.72815 26.2724 8.14994 26.2724 8.14994C26.2724 8.14994 22.1162 16.7185 31.1965 25.5034L32.1706 26.6098L31.2541 30.3015L29.3206 31.5566L28.1485 32.0702Z" fill="#A06BC0"/>
<path d="M54.1972 42.8535C54.1972 42.8535 59.5778 50.0706 66.2653 49.1077C66.2393 49.2133 66.2302 49.2508 66.1514 49.3525C58.6063 56.373 47.2544 53.9253 42.7424 47.8685" fill="#C19BDF"/>
<path d="M42.4268 47.8687C46.9388 53.9253 58.1253 56.9135 65.6702 49.8932C65.749 49.7915 66.5823 49.0605 66.6083 48.9551L65.319 49.5017C65.319 49.5017 58.5658 51.7622 49.3651 46.4773L47.4959 43.5939C47.4959 43.5939 46.0355 43.7478 45.8817 43.7478C45.7279 43.7478 42.7688 44.7853 42.7688 44.7853L41.001 46.7452L42.4268 47.8687Z" fill="#A06BC0"/>
<path d="M31.0668 42.8418C31.0668 42.8418 25.6862 50.0589 18.9988 49.0957C19.0247 49.2019 19.0339 49.2388 19.1127 49.3405C26.6576 56.3616 38.0098 53.914 42.5218 47.8572" fill="#C19BDF"/>
<path d="M42.8372 47.8571C38.3252 53.9137 26.8494 56.5109 19.3043 49.4899C19.2255 49.3882 18.7936 49.0611 18.7678 48.9551L19.945 49.4898C19.945 49.4898 26.698 51.7506 35.8987 46.4657L37.7681 43.582C37.7681 43.582 39.2285 43.7356 39.3821 43.7356C39.5359 43.7356 42.495 44.7734 42.495 44.7734L44.263 46.7329L42.8372 47.8571Z" fill="#A06BC0"/>
<path d="M27.96 34.1006C27.96 41.7863 34.6316 48.0162 42.8617 48.0162C51.0917 48.0162 57.7635 41.7863 57.7635 34.1006C57.7635 26.4148 51.0917 20.1847 42.8617 20.1847C34.6316 20.1847 27.96 26.4148 27.96 34.1006Z" fill="#E5AFE6"/>
<path d="M48.8661 24.6287C48.0295 25.5579 48.6401 27.4714 50.2295 28.9022C51.8186 30.3331 53.7854 30.7397 54.6223 29.8104C55.4588 28.8813 54.8483 26.9682 53.259 25.537C51.6695 24.1062 49.7026 23.6996 48.8661 24.6287Z" fill="white"/>
<path d="M36.6453 24.7183C37.4817 25.6474 36.8713 27.5605 35.2818 28.9917C33.6927 30.4224 31.7258 30.8292 30.8892 29.8999C30.0524 28.9708 30.6629 27.0577 32.2524 25.6265C33.8419 24.1958 35.8088 23.7891 36.6453 24.7183Z" fill="white"/>
<path d="M34.5186 33.2464C34.5186 37.2553 38.1802 40.5051 42.6974 40.5051C47.2143 40.5051 50.876 37.2553 50.876 33.2464C50.876 29.2373 47.2143 25.9875 42.6974 25.9875C38.1802 25.9875 34.5186 29.2373 34.5186 33.2464Z" fill="white"/>
<path d="M49.7107 25.247C49.1166 25.7657 49.409 27.0723 50.3639 28.1659C51.3182 29.2591 52.5736 29.7247 53.1681 29.2061C53.7619 28.6875 53.4694 27.3809 52.5149 26.2877C51.5601 25.1943 50.3046 24.7283 49.7107 25.247Z" fill="#654280"/>
<path d="M35.6653 25.3334C36.2592 25.8521 35.9669 27.1586 35.0123 28.2523C34.0577 29.3452 32.8023 29.8107 32.2078 29.2925C31.614 28.7738 31.9064 27.4673 32.8609 26.3736C33.8158 25.2807 35.0713 24.8147 35.6653 25.3334Z" fill="#654280"/>
<path d="M40.9644 27.2853C40.9644 27.9693 41.7267 28.5239 42.6671 28.5239C43.6071 28.5239 44.3696 27.9693 44.3696 27.2853C44.3696 26.6013 43.6071 26.047 42.6671 26.047C41.7267 26.047 40.9644 26.6013 40.9644 27.2853Z" fill="#654280"/>
<path d="M43.157 34.8331H42.219V28.2668H43.157V34.8331Z" fill="#654280"/>
<path d="M42.7366 34.9332C39.269 34.9332 35.5735 34.2943 34.7146 32.9618L34.9956 32.8148C35.8616 34.1587 40.2396 34.7847 43.9722 34.6126C47.4786 34.4514 50.0046 33.6567 50.5644 32.5394L50.8605 32.6594C50.2412 33.896 47.6721 34.7354 43.9887 34.9049C43.5785 34.924 43.1589 34.9332 42.7366 34.9332Z" fill="#654280"/>
</svg>
