<svg width="227" height="231" viewBox="0 0 227 231" fill="none" xmlns="http://www.w3.org/2000/svg">
<path d="M186.361 218.443C183.763 218.443 181.145 217.964 178.91 217.184C173.164 215.179 169.488 211.363 169.077 206.981L169.068 206.876L169.077 206.773C169.808 198.611 169.222 185.025 169.097 182.37L77.1816 96.8939L78.7234 95.237L171.31 181.338L171.335 181.796C171.368 182.442 172.148 197.666 171.341 206.868C171.716 210.305 174.815 213.357 179.656 215.047C185.536 217.1 191.701 216.395 194.645 213.331C199.015 208.785 199.526 202.78 199.898 198.398C199.899 198.397 199.899 198.396 199.899 198.396C199.899 198.395 199.899 198.395 199.899 198.394C200.096 196.073 200.252 194.242 200.954 193.108C201.773 191.784 204.319 190.838 209.124 189.14C209.126 189.139 209.127 189.139 209.129 189.138C214.41 187.272 222.386 184.453 222.929 181.265L223.066 180.477C224.84 170.301 224.932 160.605 213.723 158.497C208.793 159 206.094 160.006 203.92 160.816C203.919 160.816 203.919 160.816 203.918 160.817C200.851 161.96 198.633 162.786 193.196 161.346C184.067 158.928 143.459 120.887 141.735 119.269L143.283 117.618C157.745 131.191 186.909 157.339 193.775 159.158C198.521 160.415 200.253 159.767 203.128 158.696C205.447 157.83 208.335 156.755 213.659 156.229L213.817 156.214L213.972 156.242C229.115 158.97 226.439 174.312 225.296 180.864L225.16 181.643C224.393 186.146 216.683 188.871 209.877 191.274C207.12 192.248 203.344 193.582 202.878 194.299C202.462 194.971 202.312 196.729 202.154 198.588C201.776 203.041 201.202 209.773 196.277 214.9C193.836 217.44 190.12 218.443 186.361 218.443Z" fill="white"/>
<path d="M171.31 181.338L78.7234 95.237L141.735 119.269C143.459 120.887 184.067 158.928 193.196 161.346C198.633 162.786 200.851 161.96 203.918 160.817L203.92 160.816C206.094 160.006 208.793 159 213.723 158.497C224.932 160.605 224.84 170.301 223.066 180.477L222.929 181.265C222.386 184.453 214.41 187.272 209.129 189.138L209.124 189.14C204.319 190.838 201.773 191.784 200.954 193.108C200.252 194.242 200.096 196.073 199.899 198.394L199.899 198.396L199.898 198.398C199.526 202.78 199.015 208.785 194.645 213.331C191.701 216.395 185.536 217.1 179.656 215.047C174.815 213.357 171.716 210.305 171.341 206.868C172.148 197.666 171.368 182.442 171.335 181.796L171.31 181.338Z" fill="white"/>
<path d="M52.6172 13.0991C55.2147 13.0991 57.8327 13.5784 60.0677 14.3583C65.8133 16.3636 69.4893 20.1801 69.9003 24.5619L69.9099 24.6662L69.901 24.7699C69.1695 32.9314 69.7555 46.5178 69.8812 49.1721L161.796 134.649L160.254 136.306L67.6675 50.2049L67.6425 49.7462C67.6094 49.1008 66.8294 33.8767 67.6366 24.6751C67.2617 21.2379 64.1628 18.1858 59.3215 16.4959C53.4421 14.4428 47.2767 15.1478 44.3329 18.2116C39.9628 22.7581 39.452 28.7626 39.0793 33.145C39.0793 33.1456 39.0792 33.1462 39.0792 33.1468C39.0791 33.1474 39.0791 33.148 39.079 33.1486C38.8813 35.4699 38.7254 37.301 38.0242 38.4349C37.2051 39.7588 34.6584 40.7048 29.8539 42.4028C29.8522 42.4034 29.8505 42.404 29.8488 42.4046C24.5678 44.271 16.5914 47.09 16.049 50.2777L15.9122 51.0657C14.1375 61.2421 14.0463 70.9377 25.2544 73.0451C30.1847 72.5425 32.8842 71.5366 35.0579 70.7267C35.0585 70.7265 35.0592 70.7262 35.0598 70.726C38.1271 69.5822 40.3452 68.7567 45.782 70.1967C54.911 72.6144 95.5192 110.656 97.2432 112.274L95.6949 113.925C81.2327 100.352 52.0687 74.2036 45.2027 72.3843C40.4569 71.1281 38.7248 71.7757 35.8494 72.8467C33.5306 73.7126 30.6427 74.788 25.3184 75.3136L25.1611 75.329L25.0059 75.3004C9.86299 72.5725 12.5391 57.2308 13.6816 50.6783L13.8176 49.8991C14.5845 45.3968 22.2952 42.6711 29.101 40.2682C31.8573 39.295 35.6333 37.9608 36.0994 37.2434C36.5163 36.5715 36.6655 34.8139 36.8236 32.9549C37.2022 28.5011 37.7757 21.7693 42.7008 16.6422C45.1416 14.1025 48.8574 13.0991 52.6172 13.0991Z" fill="white"/>
<path d="M67.6675 50.2049L160.254 136.306L97.2432 112.274C95.5192 110.656 54.911 72.6144 45.782 70.1967C40.3452 68.7567 38.1271 69.5822 35.0598 70.726L35.0579 70.7267C32.8842 71.5366 30.1847 72.5425 25.2544 73.0451C14.0463 70.9377 14.1375 61.2421 15.9122 51.0657L16.049 50.2777C16.5914 47.09 24.5678 44.271 29.8488 42.4046L29.8539 42.4028C34.6584 40.7048 37.2051 39.7588 38.0242 38.4349C38.7254 37.301 38.8813 35.4699 39.079 33.1486L39.0792 33.1468L39.0793 33.145C39.452 28.7626 39.9628 22.7581 44.3329 18.2116C47.2767 15.1478 53.4421 14.4428 59.3215 16.4959C64.1628 18.1858 67.2617 21.2379 67.6366 24.6751C66.8294 33.8767 67.6094 49.1008 67.6425 49.7462L67.6675 50.2049Z" fill="white"/>
<path d="M3.44419 172.965C3.66858 170.378 4.37222 167.811 5.34229 165.651C7.83642 160.101 11.9562 156.768 16.3571 156.737L16.4619 156.737L16.5644 156.754C24.6322 158.188 38.2184 158.778 40.8737 158.882L133.971 74.6948L135.488 76.3739L41.7114 161.177L41.2523 161.162C40.6065 161.139 25.3719 160.601 16.2743 159.002C12.8176 159.079 9.50927 161.902 7.40743 166.58C4.85415 172.26 5.02384 178.463 7.82188 181.66C11.9739 186.407 17.9118 187.434 22.2456 188.184C22.2462 188.184 22.2468 188.185 22.2474 188.185C22.248 188.185 22.2486 188.185 22.2492 188.185C24.5447 188.582 26.3555 188.896 27.4246 189.693C28.6728 190.623 29.3953 193.242 30.6719 198.175C30.6724 198.177 30.6728 198.179 30.6733 198.18C32.0765 203.603 34.1958 211.793 37.3248 212.609L38.098 212.813C48.083 215.46 57.7346 216.389 60.8024 205.404C60.7275 200.449 59.9586 197.673 59.3395 195.437C59.3393 195.437 59.3391 195.436 59.3389 195.435C58.4644 192.281 57.8336 190 59.7379 184.707C62.9351 175.821 104.342 138.651 106.103 137.074L107.614 138.759C92.8426 151.994 64.2729 178.79 61.8672 185.474C60.2057 190.093 60.7013 191.875 61.5199 194.832C62.1823 197.217 63.0042 200.187 63.0678 205.537L63.0696 205.695L63.0277 205.847C59.0019 220.697 43.9487 216.706 37.5194 215.002L36.7549 214.799C32.3356 213.646 30.2863 205.729 28.4802 198.741C27.7487 195.911 26.7458 192.034 26.0713 191.507C25.4379 191.034 23.6998 190.733 21.8614 190.415C17.457 189.653 10.7999 188.5 6.11737 183.151C3.79804 180.5 3.1194 176.711 3.44419 172.965Z" fill="white"/>
<path d="M41.7114 161.177L135.488 76.3739L106.103 137.074C104.342 138.651 62.9351 175.821 59.7379 184.707C57.8336 190 58.4644 192.281 59.3389 195.435L59.3395 195.437C59.9586 197.673 60.7275 200.449 60.8024 205.404C57.7346 216.389 48.083 215.46 38.098 212.813L37.3248 212.609C34.1958 211.793 32.0765 203.603 30.6733 198.18L30.6719 198.175C29.3953 193.242 28.6728 190.623 27.4246 189.693C26.3555 188.896 24.5447 188.582 22.2492 188.185L22.2474 188.185L22.2456 188.184C17.9118 187.434 11.9739 186.407 7.82188 181.66C5.02384 178.463 4.85415 172.26 7.40743 166.58C9.50927 161.902 12.8176 159.079 16.2743 159.002C25.3719 160.601 40.6065 161.139 41.2523 161.162L41.7114 161.177Z" fill="white"/>
<path d="M219.574 57.4623C219.35 60.0501 218.646 62.617 217.676 64.7763C215.182 70.3271 211.062 73.6597 206.661 73.6906L206.556 73.6911L206.454 73.6734C198.386 72.2396 184.8 71.6497 182.145 71.5456L89.0473 155.733L87.5299 154.054L181.307 69.251L181.766 69.2657C182.412 69.2885 197.646 69.8265 206.744 71.4256C210.201 71.349 213.509 68.5254 215.611 63.8482C218.164 58.1681 217.994 51.9648 215.196 48.7674C211.044 44.0208 205.106 42.9933 200.773 42.2434C200.772 42.2433 200.771 42.2432 200.771 42.2431C200.77 42.243 200.77 42.2429 200.769 42.2428C198.474 41.8453 196.663 41.5317 195.594 40.7352C194.345 39.8049 193.623 37.1859 192.346 32.2527C192.346 32.2509 192.345 32.2492 192.345 32.2475C190.942 26.825 188.822 18.6349 185.694 17.8191L184.92 17.6148C174.935 14.9676 165.284 14.0392 162.216 25.0234C162.291 29.9786 163.06 32.755 163.679 34.9905C163.679 34.9911 163.679 34.9918 163.679 34.9925C164.554 38.1471 165.185 40.4282 163.28 45.7203C160.083 54.6063 118.676 91.7764 116.915 93.3542L115.404 91.6691C130.176 78.4335 158.745 51.6373 161.151 44.9541C162.813 40.3347 162.317 38.5531 161.498 35.5959C160.836 33.211 160.014 30.241 159.95 24.8911L159.949 24.7331L159.991 24.581C164.016 9.7303 179.07 13.7217 185.499 15.426L186.263 15.6288C190.683 16.7817 192.732 24.6991 194.538 31.687C195.27 34.5171 196.273 38.3942 196.947 38.9206C197.58 39.3939 199.318 39.6944 201.157 40.0125C205.561 40.7745 212.218 41.9273 216.901 47.2769C219.22 49.9281 219.899 53.7166 219.574 57.4623Z" fill="white"/>
<path d="M181.307 69.251L87.5299 154.054L116.915 93.3542C118.676 91.7764 160.083 54.6063 163.28 45.7203C165.185 40.4282 164.554 38.1471 163.679 34.9925L163.679 34.9905C163.06 32.755 162.291 29.9786 162.216 25.0234C165.284 14.0392 174.935 14.9676 184.92 17.6148L185.694 17.8191C188.822 18.6349 190.942 26.825 192.345 32.2475L192.346 32.2527C193.623 37.1859 194.345 39.8049 195.594 40.7352C196.663 41.5317 198.474 41.8453 200.769 42.2428L200.771 42.2431L200.773 42.2434C205.106 42.9933 211.044 44.0208 215.196 48.7674C217.994 51.9648 218.164 58.1681 215.611 63.8482C213.509 68.5254 210.201 71.349 206.744 71.4256C197.646 69.8265 182.412 69.2885 181.766 69.2657L181.307 69.251Z" fill="white"/>
<path d="M89.9712 76.1748C89.9712 76.1748 90.2671 33.3212 114.036 13.8324C137.362 31.0941 138.431 76.7418 138.188 77.3043" fill="#C19BDF"/>
<path d="M164.43 98.7859C164.43 98.7859 192.244 103.298 214.737 73.5557C216.146 73.3915 215.502 73.4549 216.146 73.3915C218.313 91.7882 211.869 137.975 153.797 141.995" fill="#C19BDF"/>
<path d="M164.306 116.828C203.655 108.33 215.109 76.614 215.109 76.614L216.051 73.5557C217.46 73.3915 216.816 73.4549 217.46 73.3915C219.627 91.7882 213.183 137.975 155.112 141.995L142.188 136.183L145.746 127.049L151.396 120.052L164.306 116.828Z" fill="#A06BC0"/>
<path d="M138.213 75.6864C138.213 75.6864 169.857 64.08 169.282 25.8078C169.897 24.6287 170.042 24.7472 171.061 25.8078C171.248 26.0012 171.436 26.1973 171.624 26.3974C184.809 40.4424 200.572 69.8482 163.335 104.41" fill="#C19BDF"/>
<path d="M162.846 105.121C200.083 70.5589 184.809 39.2289 171.623 25.186C171.435 24.9855 171.248 24.7893 171.061 24.5943C170.041 23.5358 169.181 25.9355 169.181 25.9355C169.181 25.9355 183.387 53.8927 152.726 83.5569L149.438 87.2931L152.533 99.7563L159.06 103.996L162.846 105.121Z" fill="#A06BC0"/>
<path d="M62.7126 98.505C62.7126 98.505 35.4897 102.82 12.7954 73.0772C11.375 72.913 12.0246 72.9764 11.375 72.913C9.18757 91.3092 15.6902 137.497 74.2799 141.517" fill="#C19BDF"/>
<path d="M63.6766 116.349C23.9768 107.851 11.469 75.7203 11.469 75.7203V73.0772C10.048 72.913 10.6971 72.9764 10.048 72.913C7.86065 91.3092 14.3639 137.496 72.9524 141.517L85.9914 135.704L82.4017 126.571L76.7007 119.573L63.6766 116.349Z" fill="#A06BC0"/>
<path d="M89.4628 78.2456C89.4628 78.2456 57.8183 66.6376 58.393 28.3653C57.7781 27.1868 57.6337 27.3064 56.6139 28.3653C56.4271 28.5587 56.2398 28.7565 56.0519 28.9554C42.8658 42.9999 27.1028 72.4074 64.3403 106.969" fill="#C19BDF"/>
<path d="M64.6567 108.288C27.4198 73.7278 42.866 41.7884 56.0527 27.7439C56.24 27.5444 56.4273 27.3466 56.6141 27.1538C57.634 26.0948 58.3219 27.519 58.3219 27.519C58.3219 27.519 44.2881 56.4516 74.9486 86.1148L78.2379 89.8504L75.1431 102.316L68.6145 106.554L64.6567 108.288Z" fill="#A06BC0"/>
<path d="M152.613 144.699C152.613 144.699 170.781 169.068 193.362 165.817C193.274 166.173 193.244 166.3 192.977 166.643C167.501 190.349 129.17 182.084 113.935 161.633" fill="#C19BDF"/>
<path d="M112.869 161.633C128.104 182.084 165.876 192.174 191.352 168.469C191.618 168.126 194.432 165.657 194.52 165.301L190.166 167.147C190.166 167.147 167.363 174.78 136.296 156.935L129.985 147.199C129.985 147.199 125.054 147.718 124.535 147.718C124.015 147.718 114.024 151.222 114.024 151.222L108.054 157.839L112.869 161.633Z" fill="#A06BC0"/>
<path d="M74.5111 144.659C74.5111 144.659 56.3431 169.028 33.7622 165.776C33.8498 166.135 33.8807 166.259 34.1468 166.603C59.623 190.31 97.9548 182.045 113.19 161.594" fill="#C19BDF"/>
<path d="M114.255 161.594C99.0197 182.044 60.2706 190.814 34.7938 167.107C34.5277 166.764 33.0695 165.659 32.9824 165.301L36.9572 167.107C36.9572 167.107 59.7595 174.741 90.8266 156.896L97.1386 147.159C97.1386 147.159 102.07 147.677 102.588 147.677C103.108 147.677 113.099 151.181 113.099 151.181L119.069 157.798L114.255 161.594Z" fill="#A06BC0"/>
<path d="M64.021 115.144C64.021 141.095 86.5484 162.131 114.338 162.131C142.127 162.131 164.655 141.095 164.655 115.144C164.655 89.1918 142.127 68.1554 114.338 68.1554C86.5484 68.1554 64.021 89.1918 64.021 115.144Z" fill="#E5AFE6"/>
<path d="M134.612 83.1609C131.787 86.2982 133.849 92.7595 139.215 97.5905C144.581 102.422 151.222 103.795 154.048 100.657C156.872 97.52 154.811 91.0603 149.445 86.2277C144.077 81.3967 137.436 80.0236 134.612 83.1609Z" fill="white"/>
<path d="M93.3473 83.463C96.1716 86.6003 94.1104 93.06 88.7433 97.8927C83.3778 102.724 76.7363 104.097 73.9114 100.959C71.086 97.8222 73.1472 91.3625 78.5143 86.5298C83.8814 81.6988 90.5229 80.3258 93.3473 83.463Z" fill="white"/>
<path d="M86.1663 112.259C86.1663 125.796 98.5303 136.769 113.783 136.769C129.035 136.769 141.399 125.796 141.399 112.259C141.399 98.7223 129.035 87.749 113.783 87.749C98.5303 87.749 86.1663 98.7223 86.1663 112.259Z" fill="white"/>
<path d="M137.465 85.2485C135.459 86.9998 136.446 91.4119 139.67 95.1044C142.893 98.7957 147.132 100.368 149.139 98.6167C151.144 96.8659 150.156 92.4538 146.933 88.7624C143.71 85.0705 139.47 83.4971 137.465 85.2485Z" fill="#654280"/>
<path d="M90.0392 85.5405C92.0443 87.2918 91.0575 91.7034 87.8342 95.3964C84.6108 99.0867 80.3718 100.659 78.3645 98.9087C76.3594 97.1574 77.3467 92.7458 80.5695 89.0528C83.7939 85.3625 88.0335 83.7891 90.0392 85.5405Z" fill="#654280"/>
<path d="M107.931 92.1314C107.931 94.4411 110.505 96.3137 113.681 96.3137C116.855 96.3137 119.429 94.4411 119.429 92.1314C119.429 89.8217 116.855 87.9501 113.681 87.9501C110.505 87.9501 107.931 89.8217 107.931 92.1314Z" fill="#654280"/>
<path d="M115.335 117.617H112.168V95.4448H115.335V117.617Z" fill="#654280"/>
<path d="M113.915 117.955C102.207 117.955 89.7285 115.798 86.8284 111.298L87.7773 110.802C90.7014 115.34 105.484 117.454 118.088 116.873C129.927 116.328 138.457 113.645 140.347 109.872L141.347 110.277C139.255 114.453 130.581 117.287 118.143 117.859C116.758 117.924 115.341 117.955 113.915 117.955Z" fill="#654280"/>
</svg>
