<svg width="82" height="19" viewBox="0 0 82 19" fill="none" xmlns="http://www.w3.org/2000/svg">
<path d="M0.318304 18V0.545454H5.95183C7.19046 0.545454 8.22455 0.784091 9.0541 1.26136C9.88933 1.73295 10.5172 2.375 10.9376 3.1875C11.3638 4 11.5768 4.91477 11.5768 5.93182C11.5768 6.94886 11.3666 7.86648 10.9461 8.68466C10.5257 9.49716 9.90069 10.142 9.07115 10.6193C8.2416 11.0909 7.21035 11.3267 5.9774 11.3267H1.54558V9.89489H5.93478C6.84955 9.89489 7.60808 9.72443 8.21035 9.38352C8.81262 9.03693 9.26149 8.56534 9.55694 7.96875C9.85808 7.37216 10.0086 6.69318 10.0086 5.93182C10.0086 5.17045 9.85808 4.49148 9.55694 3.89489C9.26149 3.2983 8.80978 2.82955 8.20183 2.48864C7.59955 2.14773 6.83535 1.97727 5.90921 1.97727H1.91205V18H0.318304ZM15.003 18V4.90909H16.4774V6.92045H16.5882C16.8496 6.26136 17.3041 5.73011 17.9518 5.3267C18.6052 4.91761 19.3439 4.71307 20.1677 4.71307C20.2927 4.71307 20.4319 4.71591 20.5853 4.72159C20.7388 4.72727 20.8666 4.73295 20.9689 4.73864V6.28125C20.9007 6.26989 20.7814 6.25284 20.6109 6.23011C20.4405 6.20739 20.2558 6.19602 20.0569 6.19602C19.3751 6.19602 18.7672 6.34091 18.2331 6.63068C17.7047 6.91477 17.2871 7.30966 16.9802 7.81534C16.6734 8.32102 16.52 8.89773 16.52 9.54545V18H15.003ZM23.5747 18V4.90909H25.1003V18H23.5747ZM24.3503 2.65909C24.0378 2.65909 23.7707 2.55398 23.5491 2.34375C23.3275 2.12784 23.2167 1.86932 23.2167 1.56818C23.2167 1.26705 23.3275 1.01136 23.5491 0.801136C23.7707 0.585227 24.0378 0.477272 24.3503 0.477272C24.6628 0.477272 24.9298 0.585227 25.1514 0.801136C25.373 1.01136 25.4838 1.26705 25.4838 1.56818C25.4838 1.86932 25.373 2.12784 25.1514 2.34375C24.9298 2.55398 24.6628 2.65909 24.3503 2.65909ZM30.6294 9.81818V18H29.1123V4.90909H30.5868V6.96307H30.7231C31.03 6.29261 31.5072 5.75568 32.155 5.35227C32.8084 4.94318 33.6152 4.73864 34.5754 4.73864C35.4561 4.73864 36.2288 4.9233 36.8936 5.29261C37.564 5.65625 38.0839 6.19318 38.4532 6.90341C38.8282 7.61364 39.0157 8.4858 39.0157 9.51989V18H37.4987V9.61364C37.4987 8.53977 37.1976 7.69034 36.5953 7.06534C35.9987 6.44034 35.1976 6.12784 34.1919 6.12784C33.5044 6.12784 32.8936 6.27557 32.3595 6.57102C31.8254 6.86648 31.4021 7.29261 31.0896 7.84943C30.7828 8.40057 30.6294 9.05682 30.6294 9.81818ZM48.167 4.90909V6.23011H41.9199V4.90909H48.167ZM43.8716 1.77273H45.3971V14.5824C45.3971 15.1278 45.4909 15.5568 45.6784 15.8693C45.8659 16.1761 46.1102 16.3949 46.4113 16.5256C46.7125 16.6506 47.0335 16.7131 47.3744 16.7131C47.5733 16.7131 47.7437 16.7017 47.8858 16.679C48.0278 16.6506 48.1528 16.6222 48.2608 16.5938L48.5846 17.9659C48.4369 18.0227 48.2551 18.0739 48.0392 18.1193C47.8233 18.1705 47.5562 18.196 47.238 18.196C46.6812 18.196 46.1443 18.0739 45.6273 17.8295C45.1159 17.5852 44.6954 17.2216 44.3659 16.7386C44.0363 16.2557 43.8716 15.6562 43.8716 14.9403V1.77273Z" fill="white"/>
<path d="M62.7004 6.1875C62.5811 5.77273 62.4135 5.40625 62.1976 5.08807C61.9817 4.7642 61.7175 4.49148 61.405 4.26989C61.0981 4.04261 60.7459 3.86932 60.3481 3.75C59.9561 3.63068 59.5214 3.57102 59.0442 3.57102C58.1521 3.57102 57.368 3.79261 56.6919 4.23579C56.0214 4.67898 55.4987 5.32386 55.1237 6.17045C54.7487 7.01136 54.5612 8.03977 54.5612 9.25568C54.5612 10.4716 54.7459 11.5057 55.1152 12.358C55.4845 13.2102 56.0072 13.8608 56.6834 14.3097C57.3595 14.7528 58.1578 14.9744 59.0782 14.9744C59.9135 14.9744 60.6265 14.8267 61.2175 14.5312C61.814 14.2301 62.2686 13.8068 62.5811 13.2614C62.8993 12.7159 63.0584 12.071 63.0584 11.3267L63.8084 11.4375H59.3084V8.65909H66.6123V10.858C66.6123 12.392 66.2885 13.7102 65.6407 14.8125C64.993 15.9091 64.101 16.7557 62.9646 17.3523C61.8282 17.9432 60.5271 18.2386 59.0612 18.2386C57.4248 18.2386 55.9873 17.8778 54.7487 17.1562C53.5101 16.429 52.5442 15.3977 51.851 14.0625C51.1635 12.7216 50.8197 11.1307 50.8197 9.28977C50.8197 7.875 51.0243 6.61364 51.4334 5.50568C51.8481 4.39205 52.4277 3.44886 53.172 2.67614C53.9163 1.90341 54.7828 1.31534 55.7714 0.911931C56.7601 0.508522 57.8311 0.306818 58.9845 0.306818C59.9731 0.306818 60.8936 0.451704 61.7459 0.741477C62.5981 1.02557 63.3538 1.42898 64.0129 1.9517C64.6777 2.47443 65.2203 3.09659 65.6407 3.81818C66.0612 4.53409 66.3311 5.32386 66.4504 6.1875H62.7004ZM75.2309 18.2557C73.9071 18.2557 72.7622 17.9744 71.7963 17.4119C70.8361 16.8437 70.0946 16.054 69.5719 15.0426C69.0491 14.0256 68.7878 12.8466 68.7878 11.5057C68.7878 10.1534 69.0491 8.97159 69.5719 7.96023C70.0946 6.94318 70.8361 6.15341 71.7963 5.59091C72.7622 5.02273 73.9071 4.73864 75.2309 4.73864C76.5548 4.73864 77.6969 5.02273 78.6571 5.59091C79.623 6.15341 80.3673 6.94318 80.89 7.96023C81.4128 8.97159 81.6741 10.1534 81.6741 11.5057C81.6741 12.8466 81.4128 14.0256 80.89 15.0426C80.3673 16.054 79.623 16.8437 78.6571 17.4119C77.6969 17.9744 76.5548 18.2557 75.2309 18.2557ZM75.248 15.4432C75.8503 15.4432 76.3531 15.2727 76.7565 14.9318C77.1599 14.5852 77.4639 14.1136 77.6684 13.517C77.8787 12.9205 77.9838 12.2415 77.9838 11.4801C77.9838 10.7188 77.8787 10.0398 77.6684 9.44318C77.4639 8.84659 77.1599 8.375 76.7565 8.02841C76.3531 7.68182 75.8503 7.50852 75.248 7.50852C74.64 7.50852 74.1287 7.68182 73.7139 8.02841C73.3048 8.375 72.9952 8.84659 72.7849 9.44318C72.5804 10.0398 72.4781 10.7188 72.4781 11.4801C72.4781 12.2415 72.5804 12.9205 72.7849 13.517C72.9952 14.1136 73.3048 14.5852 73.7139 14.9318C74.1287 15.2727 74.64 15.4432 75.248 15.4432Z" fill="#AE81D1"/>
</svg>
