<svg width="105" height="119" viewBox="0 0 105 119" fill="none" xmlns="http://www.w3.org/2000/svg">
<path d="M20.8525 38.7071L50.1769 22.0475C50.7284 21.7342 51.004 21.5776 51.2962 21.5162C51.5552 21.4619 51.822 21.4619 52.081 21.5162C52.3732 21.5776 52.6488 21.7342 53.2003 22.0475L82.5247 38.7071M20.8525 38.7071V71.9224C20.8525 72.5858 20.8525 72.9171 20.9489 73.2133C21.0341 73.4753 21.1735 73.7159 21.3577 73.9191C21.566 74.1492 21.8521 74.3119 22.4244 74.637L51.6886 91.2624M20.8525 38.7071L51.6886 54.279M82.5247 38.7071V71.9224C82.5247 72.5858 82.5247 72.9171 82.4283 73.2133C82.3431 73.4753 82.2036 73.7159 82.0193 73.9191C81.8112 74.1492 81.5252 74.3119 80.9528 74.637L51.6886 91.2624M82.5247 38.7071L51.6886 54.279M51.6886 91.2624V54.279" stroke="#AE81D1" stroke-width="6" stroke-linecap="round" stroke-linejoin="round"/>
<path d="M3 88.0164L20.8525 74.2213V38.5164L51.6885 21.4754M51.6885 21.4754V2M51.6885 21.4754L82.5246 39.3279V74.2213L102 88.0164" stroke="#AE81D1" stroke-width="6"/>
<path d="M3 31.2736L50.0733 4.54086C50.9587 4.03811 51.4011 3.7868 51.8701 3.68828C52.2859 3.60114 52.7141 3.60114 53.1299 3.68828C53.5989 3.7868 54.0413 4.03811 54.9267 4.54086L102 31.2736M3 31.2736V84.5726C3 85.6371 3 86.1687 3.15463 86.6441C3.29149 87.0645 3.51517 87.4506 3.81093 87.7767C4.14531 88.1459 4.60461 88.407 5.5232 88.9286L52.5 115.607M3 31.2736L52.5 56.2612M102 31.2736V84.5726C102 85.6371 102 86.1687 101.845 86.6441C101.709 87.0645 101.485 87.4506 101.189 87.7767C100.855 88.1459 100.396 88.407 99.4767 88.9286L52.5 115.607M102 31.2736L52.5 56.2612M52.5 115.607V56.2612" stroke="#AE81D1" stroke-width="6" stroke-linecap="round" stroke-linejoin="round"/>
</svg>
