<svg width="40" height="38" viewBox="0 0 40 38" fill="none" xmlns="http://www.w3.org/2000/svg">
<rect width="40" height="38" rx="5" fill="#FF6262"/>
<path d="M11.3776 10.3776C11.497 10.2579 11.6389 10.163 11.7951 10.0982C11.9512 10.0334 12.1187 10 12.2877 10C12.4568 10 12.6242 10.0334 12.7804 10.0982C12.9366 10.163 13.0784 10.2579 13.1978 10.3776L20.0003 17.1827L26.8029 10.3776C26.9224 10.2581 27.0643 10.1633 27.2204 10.0986C27.3766 10.034 27.5439 10.0007 27.7129 10.0007C27.882 10.0007 28.0493 10.034 28.2055 10.0986C28.3616 10.1633 28.5035 10.2581 28.623 10.3776C28.7425 10.4972 28.8373 10.639 28.902 10.7952C28.9667 10.9513 29 11.1187 29 11.2877C29 11.4568 28.9667 11.6241 28.902 11.7803C28.8373 11.9364 28.7425 12.0783 28.623 12.1978L21.8179 19.0003L28.623 25.8029C28.7425 25.9224 28.8373 26.0643 28.902 26.2204C28.9667 26.3766 29 26.5439 29 26.7129C29 26.882 28.9667 27.0493 28.902 27.2055C28.8373 27.3616 28.7425 27.5035 28.623 27.623C28.5035 27.7425 28.3616 27.8373 28.2055 27.902C28.0493 27.9667 27.882 28 27.7129 28C27.5439 28 27.3766 27.9667 27.2204 27.902C27.0643 27.8373 26.9224 27.7425 26.8029 27.623L20.0003 20.8179L13.1978 27.623C13.0783 27.7425 12.9364 27.8373 12.7803 27.902C12.6241 27.9667 12.4568 28 12.2877 28C12.1187 28 11.9513 27.9667 11.7952 27.902C11.639 27.8373 11.4972 27.7425 11.3776 27.623C11.2581 27.5035 11.1633 27.3616 11.0986 27.2055C11.034 27.0493 11.0007 26.882 11.0007 26.7129C11.0007 26.5439 11.034 26.3766 11.0986 26.2204C11.1633 26.0643 11.2581 25.9224 11.3776 25.8029L18.1827 19.0003L11.3776 12.1978C11.2579 12.0784 11.163 11.9366 11.0982 11.7804C11.0334 11.6242 11 11.4568 11 11.2877C11 11.1187 11.0334 10.9512 11.0982 10.7951C11.163 10.6389 11.2579 10.497 11.3776 10.3776Z" fill="white"/>
</svg>
