<svg width="40" height="38" viewBox="0 0 40 38" fill="none" xmlns="http://www.w3.org/2000/svg">
<rect width="40" height="38" rx="5" fill="#AEAEAE"/>
<path d="M31.7523 9.25987C31.8989 9.40691 31.9812 9.60607 31.9812 9.8137C31.9812 10.0213 31.8989 10.2205 31.7523 10.3675L30.116 12.0055L26.9781 8.86764L28.6145 7.22968C28.7616 7.08262 28.9611 7 29.1691 7C29.3771 7 29.5766 7.08262 29.7237 7.22968L31.7523 9.2583V9.25987ZM29.0067 13.1131L25.8689 9.9753L15.1798 20.6659C15.0935 20.7523 15.0284 20.8576 14.99 20.9734L13.727 24.7608C13.7041 24.8299 13.7008 24.9039 13.7176 24.9747C13.7344 25.0455 13.7705 25.1102 13.8219 25.1617C13.8734 25.2131 13.9381 25.2492 14.0089 25.266C14.0797 25.2828 14.1537 25.2795 14.2228 25.2566L18.0101 23.9936C18.1259 23.9556 18.2312 23.8911 18.3177 23.8054L29.0067 13.1131Z" fill="white"/>
<path fill-rule="evenodd" clip-rule="evenodd" d="M9 27.3967C9 28.0209 9.24795 28.6194 9.68929 29.0608C10.1306 29.5021 10.7292 29.7501 11.3534 29.7501H28.6115C29.2357 29.7501 29.8343 29.5021 30.2756 29.0608C30.717 28.6194 30.9649 28.0209 30.9649 27.3967V17.9832C30.9649 17.7751 30.8823 17.5756 30.7352 17.4285C30.588 17.2813 30.3885 17.1987 30.1805 17.1987C29.9724 17.1987 29.7729 17.2813 29.6258 17.4285C29.4786 17.5756 29.396 17.7751 29.396 17.9832V27.3967C29.396 27.6047 29.3134 27.8043 29.1662 27.9514C29.0191 28.0985 28.8196 28.1812 28.6115 28.1812H11.3534C11.1453 28.1812 10.9458 28.0985 10.7987 27.9514C10.6516 27.8043 10.5689 27.6047 10.5689 27.3967V10.1385C10.5689 9.93049 10.6516 9.73096 10.7987 9.58384C10.9458 9.43673 11.1453 9.35408 11.3534 9.35408H21.5514C21.7594 9.35408 21.959 9.27143 22.1061 9.12432C22.2532 8.9772 22.3358 8.77767 22.3358 8.56962C22.3358 8.36157 22.2532 8.16203 22.1061 8.01492C21.959 7.8678 21.7594 7.78516 21.5514 7.78516H11.3534C10.7292 7.78516 10.1306 8.0331 9.68929 8.47445C9.24795 8.91579 9 9.51438 9 10.1385V27.3967Z" fill="white"/>
</svg>
