<svg width="30" height="26" viewBox="0 0 30 26" fill="none" xmlns="http://www.w3.org/2000/svg">
<path d="M13.7356 4.2895L14.7963 5.35016L15.8569 4.2895L16.6657 3.48072C17.9334 2.21302 19.6085 1.51881 21.3982 1.51881C23.1896 1.51881 24.8578 2.20797 26.1243 3.47445C27.39 4.74017 28.0788 6.41309 28.0737 8.2026V8.2069C28.0737 9.99613 27.3798 11.6708 26.1127 12.9384C26.1124 12.9387 26.1121 12.939 26.1118 12.9393L14.7815 24.2275L3.46822 12.9143C2.19755 11.6436 1.50003 9.97359 1.50004 8.18809L1.50003 8.18379C1.49491 6.39724 2.18787 4.72345 3.45568 3.45564C4.71694 2.19439 6.39193 1.5 8.17558 1.5C9.96353 1.5 11.6454 2.19925 12.9143 3.46818L13.975 2.40752L12.9143 3.46818L13.7356 4.2895ZM14.3124 24.6948C14.3131 24.6942 14.3137 24.6935 14.3144 24.6929L14.3124 24.6948Z" stroke="white" stroke-width="3"/>
</svg>
