<svg width="34" height="32" viewBox="0 0 34 32" fill="none" xmlns="http://www.w3.org/2000/svg">
<path d="M5.66675 25.3333C5.66675 26.0405 5.96526 26.7188 6.49661 27.2189C7.02797 27.719 7.74863 28 8.50008 28C9.25153 28 9.9722 27.719 10.5036 27.2189C11.0349 26.7188 11.3334 26.0405 11.3334 25.3333C11.3334 24.626 11.0349 23.9478 10.5036 23.4477C9.9722 22.9476 9.25153 22.6666 8.50008 22.6666C7.74863 22.6666 7.02797 22.9476 6.49661 23.4477C5.96526 23.9478 5.66675 24.626 5.66675 25.3333Z" stroke="white" stroke-width="2.75" stroke-linecap="round" stroke-linejoin="round"/>
<path d="M21.25 25.3333C21.25 26.0405 21.5485 26.7188 22.0799 27.2189C22.6112 27.719 23.3319 28 24.0833 28C24.8348 28 25.5554 27.719 26.0868 27.2189C26.6182 26.7188 26.9167 26.0405 26.9167 25.3333C26.9167 24.626 26.6182 23.9478 26.0868 23.4477C25.5554 22.9476 24.8348 22.6666 24.0833 22.6666C23.3319 22.6666 22.6112 22.9476 22.0799 23.4477C21.5485 23.9478 21.25 24.626 21.25 25.3333Z" stroke="white" stroke-width="2.75" stroke-linecap="round" stroke-linejoin="round"/>
<path d="M24.0834 22.6667H8.50008V4H5.66675" stroke="white" stroke-width="2.75" stroke-linecap="round" stroke-linejoin="round"/>
<path d="M8.5 6.66663L28.3333 7.99996L26.9167 17.3333H8.5" stroke="white" stroke-width="2.75" stroke-linecap="round" stroke-linejoin="round"/>
</svg>
