<svg width="668" height="668" viewBox="0 0 668 668" fill="none" xmlns="http://www.w3.org/2000/svg">
<ellipse cx="324" cy="359" rx="252" ry="251" fill="#D9D9D9"/>
<path fill-rule="evenodd" clip-rule="evenodd" d="M0.666504 334C0.666504 149.905 149.905 0.666748 334 0.666748C518.093 0.666748 667.333 149.905 667.333 334C667.333 518.093 518.093 667.333 334 667.333C149.905 667.333 0.666504 518.093 0.666504 334ZM333.996 134C260.359 134 200.663 193.695 200.663 267.333C200.663 340.97 260.359 400.667 333.996 400.667C407.633 400.667 467.33 340.97 467.33 267.333C467.33 193.695 407.633 134 333.996 134ZM504.383 467.247C529.643 483.513 528.41 518.97 505.406 538.293C459.056 577.22 399.27 600.667 334.003 600.667C269.17 600.667 209.738 577.53 163.518 539.06C140.31 519.743 139.08 484.107 164.45 467.733C172.348 462.637 180.948 458.17 190.283 454.323C227.838 438.84 275.806 434 334 434C392.486 434 440.726 438.53 478.38 453.847C487.786 457.673 496.446 462.137 504.383 467.247Z" fill="#323232"/>
</svg>
