<svg width="123" height="114" viewBox="0 0 123 114" fill="none" xmlns="http://www.w3.org/2000/svg">
<path d="M39.2322 45.8676L60.7672 33.6143C61.1722 33.3838 61.3746 33.2687 61.5892 33.2235C61.7794 33.1836 61.9753 33.1836 62.1655 33.2235C62.3801 33.2687 62.5825 33.3838 62.9875 33.6143L84.5225 45.8676M39.2322 45.8676V70.2978C39.2322 70.7857 39.2322 71.0294 39.3029 71.2473C39.3655 71.44 39.4679 71.617 39.6032 71.7664C39.7561 71.9356 39.9662 72.0553 40.3865 72.2944L61.8773 84.5226M39.2322 45.8676L61.8773 57.3209M84.5225 45.8676V70.2978C84.5225 70.7857 84.5225 71.0294 84.4517 71.2473C84.3892 71.44 84.2867 71.617 84.1514 71.7664C83.9985 71.9356 83.7885 72.0553 83.3682 72.2944L61.8773 84.5226M84.5225 45.8676L61.8773 57.3209M61.8773 84.5226V57.3209" stroke="#AE81D1" stroke-width="6" stroke-linecap="round" stroke-linejoin="round"/>
<path d="M3 92.071V11C3 6.58172 6.58173 3 11 3H15.3806C19.7989 3 23.3806 6.58172 23.3806 11V16.5871M3 92.071V101.187C3 106.158 7.02944 110.187 12 110.187H105.658M3 92.071L9.07911 87.2945C11.6922 85.2414 15.3886 85.3085 17.9255 87.455L23.3806 92.071V16.5871M23.3806 16.5871H99.6194" stroke="#AE81D1" stroke-width="6"/>
<path d="M120 92.071V11C120 6.58172 116.418 3 112 3H107.619C103.201 3 99.6194 6.58172 99.6194 11V16.5871M120 92.071V101.187C120 106.158 115.971 110.187 111 110.187H17.3419M120 92.071L113.921 87.2945C111.308 85.2414 107.611 85.3085 105.075 87.455L99.6194 92.071V16.5871M99.6194 16.5871H23.3806" stroke="#AE81D1" stroke-width="6"/>
</svg>
