<svg width="93" height="109" viewBox="0 0 93 109" fill="none" xmlns="http://www.w3.org/2000/svg">
<path d="M40.8333 40.0524V51.7731C40.8333 54.9053 43.3724 57.4444 46.5045 57.4444V57.4444M52.1758 40.0524V51.7731C52.1758 54.9053 49.6367 57.4444 46.5045 57.4444V57.4444M46.5045 57.4444V64.2499" stroke="#AE81D1" stroke-width="6"/>
<path d="M0 3H15.8796M92.2529 3H76.3733M15.8796 3V10.3426C15.8796 12.5517 17.6705 14.3426 19.8796 14.3426H32.5154M15.8796 3H76.3733M76.3733 3V10.3426C76.3733 12.5517 74.5825 14.3426 72.3733 14.3426H60.4937M32.5154 14.3426L32.9107 28.1799C33.1117 35.2121 38.8703 40.8086 45.9054 40.8086H47.4937C54.6734 40.8086 60.4937 34.9883 60.4937 27.8086V14.3426M32.5154 14.3426H60.4937" stroke="#AE81D1" stroke-width="6"/>
<path d="M46.8826 72.5678V107.352" stroke="#AE81D1" stroke-width="6"/>
<path d="M14.3672 105.839H35.54" stroke="#AE81D1" stroke-width="6"/>
<path d="M58.2251 105.839H79.3979" stroke="#AE81D1" stroke-width="6"/>
<path d="M21.1729 89.2036L33.2716 96.0091" stroke="#AE81D1" stroke-width="6"/>
<path d="M71.8362 89.2036L59.7374 96.0091" stroke="#AE81D1" stroke-width="6"/>
</svg>
